<svg width="633" height="409" viewBox="0 0 633 409" fill="none" xmlns="http://www.w3.org/2000/svg">
<path d="M137.199 0.447856C136.537 0.545147 135.575 0.788377 135.094 0.934314C134.612 1.08025 133.83 1.27483 133.349 1.37213C132.928 1.42077 131.785 2.05317 130.883 2.78286C129.379 3.95036 126.311 4.6314 122.762 4.58275C119.152 4.53411 113.979 3.90171 111.332 3.17202C107.783 2.24775 99.6015 2.19911 94.789 3.12338C93.9468 3.31796 90.9992 3.70713 88.1718 4.04765C85.3445 4.33952 80.4718 5.36108 77.3437 6.23671C74.2156 7.11233 71.5085 7.74473 71.3882 7.59879C71.2078 7.45286 71.1476 6.62588 71.2679 5.70161C71.5687 2.68556 67.839 0.98296 65.3125 3.02608C63.6882 4.33952 63.8085 5.89619 65.7335 7.5015C66.6359 8.23119 66.9968 8.86358 66.5757 8.86358C66.2148 8.86358 65.132 9.3014 64.2296 9.8365C63.3273 10.3716 59.8382 11.3445 56.4093 11.9769C49.6117 13.2903 47.9874 14.1173 41.4906 19.3224C39.5054 20.9277 36.6179 23.2141 35.0539 24.3816C33.189 25.7923 32.1062 27.0571 31.8656 28.176C31.3242 30.4137 31.9257 34.6459 32.7679 35.0837C33.8507 35.6674 34.0914 40.4347 33.0687 41.9914C31.9859 43.7426 29.2789 45.9317 28.6773 45.6398C28.3765 45.4939 27.2937 46.029 26.2109 46.8073C25.0679 47.6343 23.8648 48.2667 23.5039 48.2667C22.1804 48.2667 20.857 51.6232 20.5562 55.8554C19.8945 63.9306 19.5937 65.1468 17.9093 67.1899C16.2851 69.1357 12.3749 71.714 10.2093 72.2977C8.94604 72.6382 6.11869 77.1623 5.21635 80.2756C3.83276 85.4807 6.41948 90.9291 12.6156 95.9396C16.7062 99.1989 17.2476 100.026 15.6835 100.512C14.5406 100.853 14.5406 102.458 15.6835 103.236C16.4054 103.723 16.8867 103.674 18.0296 103.091C19.3531 102.361 19.5335 102.361 20.3757 103.139C20.9171 103.577 21.5789 104.55 21.9398 105.28C22.6617 106.885 22.3609 113.355 21.4585 114.084C21.0976 114.376 20.7968 115.106 20.7968 115.738C20.7968 116.371 20.5562 116.857 20.1953 116.857C19.8945 116.857 19.5937 117.246 19.5937 117.733C19.5937 118.219 19.0523 119.533 18.3906 120.652C17.7289 121.722 17.1874 122.987 17.1874 123.424C17.1874 123.814 16.8867 124.543 16.5257 125.03C16.0445 125.614 15.9843 127.024 16.2249 129.165C16.646 132.035 16.9468 132.667 18.9921 134.37C20.1953 135.391 21.3984 136.17 21.5187 136.024C21.6992 135.926 22.8421 136.559 24.1054 137.532C26.7523 139.478 26.9328 139.478 28.7976 138.553C30.3015 137.775 33.3093 137.824 38.5429 138.699C42.1523 139.332 45.2804 140.548 44.6187 141.034C44.4382 141.229 44.5585 141.618 44.9796 142.007C46.0023 143.029 45.7617 147.65 44.4984 152.126C42.6335 158.498 43.1749 162.876 46.1828 166.719C46.6039 167.254 48.7695 169.784 51.0554 172.411C53.2812 174.989 55.2664 177.519 55.507 178.005C55.6874 178.492 56.3492 179.756 56.8906 180.827C57.4921 181.897 58.1539 184.524 58.3945 186.664C59.0562 192.745 60.3796 197.609 62.1242 200.528C63.0265 201.988 63.8687 203.593 63.9289 204.079C64.0492 204.566 64.5906 205.539 65.132 206.22C66.5757 208.02 68.3203 212.154 67.7187 212.446C67.4781 212.544 67.2375 213.225 67.1773 213.906C66.9968 216.338 66.8765 216.581 65.7937 216.873C65.1921 217.019 64.7109 217.36 64.7109 217.603C64.7109 217.846 64.35 218.041 63.8687 218.041C63.3875 218.041 62.9062 218.381 62.6656 218.77C62.4851 219.159 62.064 219.5 61.6429 219.5C61.282 219.5 60.4398 220.035 59.8382 220.668C59.1765 221.349 58.1539 222.03 57.4921 222.176C56.8304 222.37 56.289 222.808 56.289 223.197C56.289 223.586 56.0484 223.878 55.6874 223.878C55.3867 223.878 55.0859 224.219 55.0859 224.608C55.0859 224.997 54.7851 225.338 54.4242 225.338C54.0632 225.338 53.8828 225.678 54.1234 226.067C54.3039 226.505 54.0632 227.527 53.6421 228.402C51.296 232.78 50.6945 234.191 50.6945 234.823C50.6945 235.213 50.514 235.553 50.2734 235.553C49.7921 235.553 48.4687 242.364 48.4687 244.699C48.4687 245.963 48.1679 246.401 46.9648 246.742C46.0624 247.034 45.4609 247.569 45.4609 248.152C45.4609 249.223 47.5062 250.39 48.4687 249.904C48.8296 249.709 49.0703 250.828 49.0703 252.774C49.0703 254.574 48.8296 255.984 48.4687 255.984C48.1679 255.984 47.8671 256.519 47.8671 257.152C47.8671 259.39 38.3023 265.227 34.6328 265.227C33.971 265.227 33.4296 265.422 33.4296 265.665C33.4296 265.957 32.4671 266.005 31.3242 265.859C29.9406 265.665 29.2187 265.762 29.2187 266.151C29.2187 266.443 28.6171 266.686 27.9554 266.686C26.0906 266.686 22.7218 268.486 22.2406 269.751C22.0601 270.335 21.3382 271.211 20.7367 271.648C20.1351 272.135 19.5335 273.546 19.3531 274.81C18.8718 277.972 18.1499 280.064 16.5859 283.226C15.8039 284.685 14.7812 286.729 14.2999 287.701C13.5781 289.258 13.0968 289.55 11.6531 289.55C10.2093 289.55 10.0289 289.404 10.5101 288.674C11.6531 286.923 8.82573 283.713 6.05854 283.713C4.55463 283.713 2.14838 285.95 2.14838 287.361C2.14838 289.112 4.67494 291.009 6.96088 291.009C8.16401 291.009 8.70541 291.204 8.46479 291.544C8.22416 291.836 7.68276 291.934 7.26166 291.788C6.84057 291.69 5.87807 292.128 5.09604 292.809C4.01323 293.734 3.89291 294.123 4.43432 294.269C5.03588 294.463 4.97573 294.755 4.19369 295.436C3.17104 296.36 3.17104 296.409 4.37416 296.652C5.15619 296.847 5.57729 297.187 5.33666 297.625C5.15619 298.014 5.39682 298.404 5.87807 298.549C6.35932 298.695 6.72026 299.231 6.78041 299.766C6.84057 300.301 7.32182 301.079 7.80307 301.517C8.34448 301.955 8.64526 302.441 8.46479 302.684C8.28432 302.879 8.5851 303.317 9.06635 303.657C9.5476 303.998 9.96869 304.679 9.96869 305.165C9.96869 305.7 10.2093 306.09 10.4499 306.09C10.871 306.09 12.3148 308.522 12.6757 309.884C12.796 310.273 13.2773 310.906 13.6984 311.343C14.4804 312.122 18.0296 317.862 19.8945 321.413C23.2031 327.688 24.5265 334.207 22.8421 335.764C22.421 336.153 22.0601 336.688 22.0601 336.98C21.8796 338.244 21.2179 339.169 20.496 339.169C20.0148 339.169 19.3531 339.558 19.0523 339.996C18.6914 340.482 18.3906 340.677 18.3906 340.434C18.3906 340.19 17.9695 340.288 17.4882 340.628C17.007 340.92 16.3453 341.066 16.0445 340.92C15.7437 340.725 15.3226 340.774 15.2023 340.969C15.0218 341.212 13.8789 341.358 12.5554 341.358C11.2921 341.309 10.089 341.552 9.84838 341.844C9.42729 342.331 9.12651 342.428 6.96088 342.525C6.29916 342.525 5.75776 342.914 5.75776 343.304C5.75776 343.693 5.21635 344.033 4.49448 344.033C3.83276 344.033 3.47182 344.228 3.65229 344.52C3.83276 344.763 3.59213 345.006 3.11088 345.006C2.56947 345.006 2.14838 345.298 2.14838 345.687C2.14838 346.028 1.78744 346.612 1.30619 346.903C-0.498494 348.12 -0.257869 355.222 1.8476 363.297C2.62963 366.313 12.014 371.859 24.8273 376.869C27.8351 378.037 30.482 379.253 30.6624 379.496C30.8429 379.739 32.1062 380.08 33.4296 380.274C34.7531 380.469 36.0164 380.858 36.257 381.199C36.5578 381.539 37.2796 382.074 37.9414 382.366C38.6031 382.609 39.9867 384.02 41.0695 385.48C42.9343 387.961 43.596 389.42 46.664 397.398C47.446 399.344 48.3484 400.998 48.7093 401.095C49.0101 401.192 48.4687 401.679 47.446 402.165C45.0398 403.333 43.8968 405.327 44.7992 406.738C46.4234 409.17 50.0929 408.976 51.9578 406.3C52.9203 404.938 53.1609 404.889 56.5898 404.889C60.6804 404.987 62.064 404.792 63.9289 403.965C64.6507 403.624 65.4929 403.43 65.7335 403.43C67.2375 403.722 72.2906 401.484 76.0203 398.809C77.8851 397.544 80.1109 396.23 81.0734 395.987C81.9757 395.744 82.8781 395.111 83.0585 394.625C83.4195 393.701 84.7429 393.458 92.6835 392.971C95.0296 392.825 98.8195 392.241 101.105 391.658C105.798 390.539 108.505 390.052 115.362 389.323C117.949 389.031 121.679 388.35 123.604 387.815L127.213 386.842L129.319 387.863C130.522 388.398 131.665 388.739 131.966 388.593C132.266 388.447 133.109 388.885 133.891 389.517C135.094 390.539 138.282 391.804 140.207 391.949C140.568 391.998 141.591 392.241 142.493 392.582C144.779 393.36 146.042 393.312 149.351 392.29C154.584 390.636 157.833 388.447 159.938 385.042C160.48 384.215 161.502 383.388 162.164 383.193C162.826 383.047 163.367 382.464 163.367 381.928C163.367 381.345 163.969 380.81 164.871 380.518C166.435 380.031 166.856 378.669 165.713 377.745C165.172 377.307 165.412 377.064 166.616 376.821C168.541 376.431 168.541 376.286 166.796 375.167L165.473 374.291L167.157 373.951C168.059 373.756 168.781 373.318 168.781 372.978C168.781 372.588 169.623 372.199 170.586 372.005C172.15 371.713 172.33 371.567 171.729 370.934C171.127 370.351 171.127 370.156 171.849 369.767C172.33 369.524 173.173 369.329 173.774 369.329C174.376 369.329 174.677 369.086 174.496 368.843C174.255 368.551 174.797 368.356 175.699 368.356C177.023 368.356 177.203 368.21 176.902 367.383C176.602 366.605 176.782 366.41 178.045 366.41C178.887 366.41 179.609 366.216 179.609 365.924C179.609 365.681 180.271 365.34 181.113 365.146C181.955 365 182.617 364.562 182.617 364.173C182.617 363.784 183.159 363.492 183.76 363.492C184.362 363.492 185.023 363.151 185.264 362.762C185.444 362.373 186.166 362.032 186.948 362.032C187.67 362.032 188.873 361.546 189.595 361.011C190.618 360.232 192.182 359.843 195.671 359.551C203.191 358.919 207.883 358.141 209.327 357.411C210.109 357.022 210.83 356.779 210.951 356.924C211.853 357.606 215.402 353.227 218.169 347.876C219.914 344.568 222.14 340.92 223.162 339.753C225.027 337.612 230.622 333.818 231.885 333.818C233.389 333.818 237.299 331.823 243.074 328.029C249.451 323.894 250.654 323.31 259.617 320.294C266.836 317.813 270.265 317.375 273.212 318.494C275.077 319.175 275.98 319.224 280.251 318.786C282.958 318.494 286.387 318.154 287.83 318.008C289.274 317.862 291.019 317.473 291.68 317.181C295.109 315.721 318.991 316.013 322.841 317.57C323.984 318.056 326.391 318.154 332.166 317.911C336.437 317.765 340.347 317.667 340.828 317.716C341.309 317.716 344.317 317.813 347.445 317.911C350.634 317.959 353.762 318.3 354.544 318.64C355.266 318.981 356.168 319.127 356.529 318.981C356.83 318.786 357.792 319.029 358.634 319.467C359.657 320.002 360.74 320.148 362.184 319.905C363.387 319.759 364.65 319.808 365.071 320.1C365.432 320.343 366.996 320.683 368.5 320.829C370.004 320.975 373.914 321.462 377.223 321.899C385.284 323.067 390.878 322.483 396.834 320.002C399.24 318.981 401.827 318.251 403.03 318.251C404.173 318.251 405.255 318.105 405.376 317.862C405.556 317.667 406.88 317.619 408.323 317.716C414.64 318.154 425.227 317.813 426.19 317.084C426.731 316.694 427.814 316.305 428.656 316.208C429.859 316.111 430.22 315.77 430.341 314.457C430.461 313.63 430.822 312.9 431.123 312.9C432.446 312.9 433.529 311.489 433.108 310.224C432.807 309.3 432.987 309.008 433.709 309.008C434.251 309.008 434.672 308.668 434.672 308.279C434.672 307.889 435.033 307.549 435.514 307.549C435.995 307.549 436.477 307.063 436.597 306.43C436.717 305.554 437.319 305.263 439.785 304.922C441.47 304.728 445.259 304.484 448.207 304.436C451.275 304.436 454.162 304.144 454.945 303.755C456.93 302.879 459.456 303.025 463.066 304.387C464.81 305.019 467.758 305.846 469.562 306.138C471.367 306.43 473.412 307.063 474.074 307.549C475.999 308.96 478.285 309.203 480.33 308.23C481.353 307.744 482.195 307.16 482.195 306.917C482.195 305.895 488.812 306.917 492.843 308.522C500.543 311.587 513.477 319.175 513.477 320.635C513.477 321.073 513.898 322.045 514.379 322.824C514.86 323.553 515.281 324.672 515.281 325.256C515.281 325.888 515.462 326.472 515.642 326.667C515.883 326.813 516.063 328.515 516.123 330.364C516.184 333.38 516.424 333.964 518.048 335.618C519.071 336.639 520.395 337.563 521.056 337.661C521.658 337.758 523.162 338.342 524.425 338.974C525.688 339.655 527.012 340.044 527.312 339.898C527.613 339.753 528.636 339.947 529.538 340.288C530.441 340.677 532.847 341.163 534.832 341.358C536.817 341.552 538.862 341.893 539.344 342.088C539.825 342.331 541.57 342.574 543.134 342.72C544.698 342.866 546.442 343.255 546.923 343.596C547.405 343.936 548.548 344.277 549.39 344.325C550.232 344.423 551.255 344.86 551.616 345.298C552.337 346.076 552.638 346.076 556.127 345.104C561.12 343.741 565.391 341.115 567.016 338.488C567.677 337.32 568.76 336.007 569.362 335.569C569.963 335.131 570.926 333.915 571.527 332.845C572.129 331.726 573.031 330.899 573.573 330.899C574.114 330.899 575.257 329.829 576.22 328.515C577.122 327.202 579.047 325.11 580.551 323.845C582.055 322.629 583.258 321.316 583.258 320.927C583.258 319.516 584.1 318.689 587.168 317.278C590.657 315.673 592.341 315.478 593.484 316.548C594.026 317.084 594.507 317.132 595.349 316.743C596.252 316.354 597.094 316.597 599.259 317.813C601.605 319.127 602.207 319.224 603.591 318.786C604.493 318.494 606.779 318.3 608.764 318.3C610.689 318.3 613.035 318.056 613.998 317.716C615.983 317.084 616.885 315.235 615.742 314.116C615.141 313.532 615.261 313.338 616.404 312.949C617.186 312.657 618.509 312.024 619.291 311.538L620.675 310.614L617.487 309.689C615.742 309.203 614.238 308.522 614.118 308.279C614.058 307.987 615.562 306.965 617.487 305.944C621.998 303.609 622.72 302.928 621.818 302.003C621.337 301.517 621.277 301.225 621.758 300.982C622.6 300.544 622.54 299.96 621.397 299.085C620.916 298.647 620.615 298.112 620.855 297.868C621.036 297.625 620.615 297.09 619.893 296.652C619.171 296.263 618.75 295.777 618.93 295.533C619.051 295.339 618.93 294.609 618.57 293.928C618.209 293.247 617.908 292.323 617.848 291.836C617.727 291.399 617.607 290.961 617.547 290.863C617.126 290.523 617.246 286.631 617.667 286.631C617.968 286.631 618.028 286.388 617.848 286.145C617.667 285.902 617.787 285.658 618.088 285.658C618.449 285.658 618.75 285.318 618.75 284.929C618.75 284.053 623.081 280.599 625.427 279.578C626.33 279.188 627.172 278.556 627.352 278.118C627.593 277.729 628.074 277.389 628.555 277.389C629.698 277.389 631.684 275.005 632.165 273.108C632.766 270.627 631.503 267.416 627.954 262.308C626.149 259.779 624.465 257.346 624.104 256.957C623.803 256.568 623.141 255.449 622.6 254.525C622.119 253.601 621.216 252.141 620.675 251.363C619.231 249.174 619.412 244.115 621.036 241.537C624.465 236.137 625.006 234.191 624.886 227.527C624.826 224.024 624.766 220.23 624.826 219.014C624.946 212.398 624.766 210.063 624.224 209.625C623.863 209.333 623.562 208.263 623.562 207.241C623.562 206.22 623.262 205.393 622.901 205.393C622.6 205.393 621.878 204.614 621.397 203.641C620.795 202.523 619.893 201.744 618.75 201.452C617.787 201.161 616.584 200.431 616.043 199.75C615.562 199.117 614.84 198.582 614.539 198.582C614.238 198.582 613.216 197.999 612.313 197.318C605.997 192.648 602.688 190.945 597.395 189.777C593.244 188.853 591.8 188.804 585.664 189.096C573.272 189.68 569.302 188.513 566.895 183.599C566.053 181.848 566.053 181.118 566.715 177.567C567.798 171.924 570.384 163.801 571.648 162.001C573.573 159.325 573.873 158.936 576.34 156.893C579.227 154.509 580.912 154.023 582.777 154.996C586.506 156.941 591.078 155.531 591.078 152.417C591.078 151.59 590.477 150.374 589.695 149.645C588.311 148.38 588.311 148.283 589.394 147.407C591.198 145.948 590.898 140.742 588.852 137.726C588.01 136.413 586.927 135.343 586.446 135.343C586.025 135.343 585.664 135.148 585.664 134.905C585.664 134.127 581.513 130.965 580.551 130.965C580.07 130.965 579.648 130.721 579.648 130.429C579.648 130.186 579.408 130.089 579.047 130.235C578.746 130.381 578.445 130.284 578.445 129.943C578.445 129.603 578.265 129.505 578.084 129.651C577.844 129.797 577.122 129.7 576.46 129.457C575.558 129.067 575.137 129.067 574.776 129.554C574.415 129.992 574.054 130.04 573.813 129.748C573.512 129.457 572.971 129.262 572.49 129.262C572.009 129.262 571.347 128.824 570.986 128.289C570.625 127.754 569.903 127.073 569.482 126.781C567.978 125.857 567.136 121.041 567.918 118.511C568.279 117.295 568.88 116.128 569.241 115.982C570.084 115.544 573.753 106.204 573.272 105.62C573.091 105.328 573.332 104.744 573.873 104.307C574.716 103.528 574.655 103.091 573.573 99.588C572.911 97.4476 572.069 95.4531 571.648 95.1126C571.227 94.8207 569.422 94.1397 567.557 93.6046C564.248 92.6803 564.188 92.6803 563.466 93.6046C563.105 94.1397 562.444 94.3829 562.083 94.1883C561.662 93.9938 559.977 93.7505 558.353 93.7019C556.669 93.6532 555.285 93.556 555.285 93.5073C555.285 93.41 553.059 92.9722 552.157 92.9236C551.736 92.8749 551.375 92.6803 551.375 92.4371C551.375 92.2425 550.834 92.0479 550.232 92.0479C549.57 92.0479 548.668 91.6588 548.247 91.1723C547.826 90.7345 546.743 89.9562 545.901 89.5183C544.938 89.0319 543.073 86.6482 540.848 82.9512C537.058 76.7245 535.674 75.1678 529.237 69.7681C526.891 67.8223 524.605 65.5846 524.184 64.8063C523.763 63.9793 523.222 63.3469 523.041 63.3469C522.44 63.3469 522.62 57.3148 523.282 56.6338C523.583 56.3419 523.643 56.05 523.462 56.05C523.222 56.05 523.583 55.4176 524.245 54.6393C525.387 53.3259 526.831 50.8936 526.952 50.0666C527.012 49.872 527.312 49.5315 527.673 49.3369C528.034 49.1423 528.275 48.5099 528.215 47.8775C528.155 47.2451 528.335 46.6614 528.576 46.5154C528.877 46.4181 528.937 45.9803 528.756 45.5912C528.516 45.202 528.095 45.0074 527.734 45.202C527.373 45.3966 527.252 45.202 527.493 44.7155C527.734 44.2291 528.095 43.548 528.335 43.1102C528.636 42.4778 528.455 42.3805 527.433 42.6724C526.47 42.9156 526.109 42.7697 526.109 42.186C526.109 41.5049 525.929 41.5049 524.365 42.186C523.342 42.5751 521.959 42.9643 521.237 43.0616C520.515 43.1589 519.492 43.694 518.951 44.2291C517.627 45.6398 509.867 50.699 506.859 52.1584C505.476 52.8394 503.551 53.4231 502.588 53.4718C501.566 53.5691 500.302 53.8123 499.761 54.0555C498.919 54.3961 491.219 54.4447 489.113 54.1042C488.151 53.9582 485.805 54.6879 485.805 55.1257C485.805 55.369 485.504 55.5149 485.083 55.4176C484.722 55.369 484.241 55.8068 484.06 56.4392C483.88 57.0716 483.519 57.558 483.218 57.5094C482.977 57.5094 482.195 57.9472 481.473 58.4337C480.812 58.9688 479.97 59.3093 479.669 59.1634C479.428 59.0174 479.187 59.1147 479.187 59.4066C479.187 59.893 476.42 60.5254 473.473 60.6714C470.826 60.8173 465.592 59.5525 461.141 57.7526C454.584 55.0771 452.117 54.6879 449.35 56.0987C447.786 56.877 447.245 57.6553 446.041 60.9146C443.635 67.6277 439.424 70.1573 430.04 70.4005C427.814 70.4492 425.528 70.5951 425.047 70.6924C423.062 71.1302 420.595 73.903 420.535 75.7516C420.475 76.2867 419.994 78.2325 419.392 80.1297C418.43 83.0971 417.948 83.7295 415.723 85.1889C412.895 86.9888 412.354 87.1347 406.158 87.1833C403.631 87.232 401.586 86.9888 400.744 86.551C398.037 85.1402 391.961 84.1673 387.87 84.4592C385.705 84.6051 383.659 84.9456 383.298 85.1889C382.516 85.724 371.688 88.6427 370.545 88.6427C370.124 88.6427 368.5 88.9832 366.996 89.3724C362.845 90.5399 358.634 90.394 353.16 88.9346C350.513 88.2049 347.686 87.232 346.844 86.7942C344.798 85.724 341.49 85.6753 339.324 86.6969C338.362 87.1833 337.339 87.6212 337.038 87.6212C336.798 87.6212 334.812 88.1076 332.587 88.6427C330.12 89.2751 326.631 89.6643 323.443 89.7129C318.51 89.8102 318.029 89.7129 313.096 87.8157C308.705 86.1131 306.96 84.9943 300.764 80.1297C293.966 74.73 288.793 71.6167 286.627 71.6167C286.086 71.6167 285.484 71.1789 285.304 70.6438C285.123 69.9627 284.462 69.6709 283.439 69.6709C282.597 69.6709 281.875 69.4276 281.875 69.1844C281.875 68.8925 281.394 68.6979 280.732 68.6979C279.95 68.6979 279.529 68.2601 279.288 67.2386C279.048 66.4116 278.506 65.7792 278.025 65.7792C277.604 65.7792 276.822 65.2927 276.341 64.709C275.559 63.7847 275.619 63.4928 276.521 62.0335C278.386 59.0661 276.401 56.5365 272.25 56.5365C270.445 56.5365 270.385 56.4878 271.287 55.4663C272.611 53.9582 272.491 51.8665 270.987 50.6503C269.904 49.7747 269.242 49.6774 267.137 49.872C264.911 50.1639 264.43 50.0179 263.648 49.0937C263.166 48.5099 262.565 47.2451 262.324 46.3209C261.542 43.2075 256.309 37.5646 254.263 37.5646C253.722 37.5646 252.94 37.3214 252.579 37.0295C252.218 36.7376 249.992 36.4457 247.646 36.3971C243.856 36.3485 243.255 36.2025 241.57 34.8891C240.066 33.7216 239.164 33.4784 236.878 33.4297C234.352 33.3811 231.464 32.5541 226.531 30.3164C223.403 28.9056 220.576 27.8354 219.914 27.8354C218.952 27.8354 210.891 23.4573 210.891 22.9222C210.891 21.7547 207.823 21.2682 200.664 21.2682C193.505 21.2682 192.964 21.2196 190.016 19.8575C188.332 19.1278 186.166 17.6685 185.204 16.6955C183.459 14.9443 179.609 8.91223 179.609 8.03661C179.609 5.84754 173.955 1.1289 171.248 0.98296C169.323 0.885668 169.503 0.885668 161.984 1.32348C158.615 1.51806 154.644 1.71265 153.141 1.71265C149.17 1.71265 140.387 1.03161 139.305 0.642439C138.823 0.447856 137.861 0.350564 137.199 0.447856ZM251.917 57.4121C252.338 57.9472 253.301 58.4823 254.083 58.6769C254.805 58.8715 255.406 59.3579 255.406 59.7471C255.406 60.1363 255.647 60.4281 255.948 60.4281C256.609 60.4281 257.211 63.4928 256.609 63.8334C256.369 63.9793 255.647 64.9522 255.045 66.0224C254.143 67.5304 253.361 68.0655 251.135 68.6979C249.631 69.1357 247.947 69.4763 247.345 69.379C245.059 69.1357 242.352 67.725 241.63 66.4116C241.209 65.6819 240.608 64.709 240.367 64.3198C239.886 63.4442 240.247 60.9146 241.029 60.1363C241.33 59.8444 241.39 59.4552 241.209 59.3093C240.969 59.1634 241.57 58.7255 242.533 58.385C243.495 58.0445 244.398 57.6553 244.578 57.4607C245.059 57.0229 246.443 56.7311 248.849 56.5851C250.473 56.5365 251.316 56.7797 251.917 57.4121ZM607.32 217.554C607.982 218.089 608.523 218.722 608.523 219.014C608.523 219.257 608.945 219.354 609.426 219.208C610.509 218.868 610.629 220.327 609.727 223.003C609.125 224.608 608.704 226.797 608.463 229.229C608.403 229.618 608.102 230.202 607.802 230.543C607.501 230.883 607.38 231.37 607.561 231.613C607.802 231.856 607.681 232.197 607.32 232.391C606.959 232.586 606.839 232.878 607.02 233.072C607.38 233.559 605.756 236.38 604.433 237.596C603.831 238.18 602.688 238.472 601.184 238.472C599.921 238.472 598.898 238.666 598.898 238.958C598.898 239.688 598.056 239.542 596.612 238.569C595.891 238.131 594.687 237.402 593.905 236.964C592.702 236.234 592.522 235.796 592.642 233.072C592.702 231.37 593.063 229.375 593.424 228.645C593.785 227.916 593.905 226.943 593.725 226.554C593.484 226.164 593.605 225.824 593.966 225.824C594.266 225.824 594.687 224.997 594.868 223.975C595.349 221.592 599.62 217.749 602.508 217.116C605.636 216.435 605.997 216.484 607.32 217.554ZM54.1835 280.307C55.507 280.599 57.1914 280.988 57.9734 281.134C58.6953 281.28 59.2968 281.621 59.2968 281.913C59.2968 282.204 59.4773 282.253 59.7179 282.107C59.8984 281.913 60.7406 282.35 61.5828 283.08C62.7859 284.15 62.9664 284.685 62.6656 286.242C62.1843 288.577 60.2593 290.766 58.1539 291.447C55.6874 292.274 50.2132 292.469 47.2656 291.885C45.7617 291.593 43.4156 290.669 42.032 289.842C39.5054 288.334 39.4453 288.188 39.2046 284.296C39.1445 283.858 38.964 283.372 38.7234 283.226C38.182 282.886 38.7234 282.253 41.0695 280.745C42.7539 279.578 43.3554 279.48 47.3859 279.626C49.7921 279.675 52.8601 280.015 54.1835 280.307ZM590.597 286.729C590.777 287.069 591.259 287.361 591.74 287.41C592.221 287.41 593.063 287.507 593.665 287.507C594.266 287.556 594.687 287.993 594.687 288.528C594.687 289.064 594.988 289.55 595.409 289.647C595.891 289.793 595.65 290.231 594.808 290.912C594.086 291.496 593.484 292.226 593.484 292.517C593.484 293.101 589.815 294.415 588.07 294.415C587.348 294.415 586.987 294.171 587.168 293.928C587.348 293.636 587.228 293.442 586.867 293.442C586.506 293.442 586.386 293.198 586.566 292.955C586.747 292.663 586.386 292.469 585.724 292.469C585.002 292.469 584.461 292.226 584.461 291.982C584.461 291.69 584.762 291.496 585.123 291.496C585.423 291.496 585.604 291.301 585.363 291.058C585.183 290.766 585.484 290.377 586.085 290.134C586.927 289.745 586.987 289.501 586.326 288.869C585.664 288.237 585.845 287.993 587.589 287.118C589.935 285.999 590.296 285.95 590.597 286.729Z" fill="black"/>
<path d="M164.261 188L160.821 179.16H149.501L146.101 188H142.461L153.621 159.32H156.861L167.981 188H164.261ZM156.541 167.32C156.461 167.107 156.328 166.72 156.141 166.16C155.954 165.6 155.768 165.027 155.581 164.44C155.421 163.827 155.288 163.36 155.181 163.04C155.048 163.573 154.901 164.12 154.741 164.68C154.608 165.213 154.461 165.707 154.301 166.16C154.168 166.613 154.048 167 153.941 167.32L150.701 175.96H159.741L156.541 167.32ZM181.728 166.16C184.288 166.16 186.221 166.787 187.528 168.04C188.834 169.267 189.488 171.267 189.488 174.04V188H186.008V174.28C186.008 172.547 185.621 171.253 184.848 170.4C184.074 169.547 182.861 169.12 181.208 169.12C178.834 169.12 177.194 169.787 176.288 171.12C175.381 172.453 174.928 174.373 174.928 176.88V188H171.408V166.56H174.248L174.768 169.48H174.968C175.448 168.733 176.034 168.12 176.728 167.64C177.448 167.133 178.234 166.76 179.088 166.52C179.941 166.28 180.821 166.16 181.728 166.16ZM199.654 166.56V188H196.134V166.56H199.654ZM197.934 158.52C198.468 158.52 198.934 158.707 199.334 159.08C199.761 159.427 199.974 159.987 199.974 160.76C199.974 161.507 199.761 162.067 199.334 162.44C198.934 162.813 198.468 163 197.934 163C197.348 163 196.854 162.813 196.454 162.44C196.054 162.067 195.854 161.507 195.854 160.76C195.854 159.987 196.054 159.427 196.454 159.08C196.854 158.707 197.348 158.52 197.934 158.52ZM211.167 188L203.047 166.56H206.807L211.367 179.2C211.58 179.787 211.807 180.44 212.047 181.16C212.287 181.88 212.5 182.573 212.687 183.24C212.874 183.88 213.007 184.427 213.087 184.88H213.247C213.354 184.427 213.5 183.867 213.687 183.2C213.9 182.533 214.127 181.84 214.367 181.12C214.634 180.4 214.86 179.76 215.047 179.2L219.607 166.56H223.367L215.207 188H211.167ZM235.039 166.16C236.879 166.16 238.453 166.56 239.759 167.36C241.093 168.16 242.106 169.293 242.799 170.76C243.519 172.2 243.879 173.893 243.879 175.84V177.96H229.199C229.253 180.387 229.866 182.24 231.039 183.52C232.239 184.773 233.906 185.4 236.039 185.4C237.399 185.4 238.599 185.28 239.639 185.04C240.706 184.773 241.799 184.4 242.919 183.92V187C241.826 187.48 240.746 187.827 239.679 188.04C238.613 188.28 237.346 188.4 235.879 188.4C233.853 188.4 232.053 187.987 230.479 187.16C228.933 186.333 227.719 185.107 226.839 183.48C225.986 181.827 225.559 179.813 225.559 177.44C225.559 175.093 225.946 173.08 226.719 171.4C227.519 169.72 228.626 168.427 230.039 167.52C231.479 166.613 233.146 166.16 235.039 166.16ZM234.999 169.04C233.319 169.04 231.986 169.587 230.999 170.68C230.039 171.747 229.466 173.24 229.279 175.16H240.199C240.199 173.933 240.013 172.867 239.639 171.96C239.266 171.053 238.693 170.347 237.919 169.84C237.173 169.307 236.199 169.04 234.999 169.04ZM259.338 166.16C259.738 166.16 260.164 166.187 260.618 166.24C261.098 166.267 261.511 166.32 261.858 166.4L261.418 169.64C261.071 169.56 260.684 169.493 260.258 169.44C259.858 169.387 259.471 169.36 259.098 169.36C258.271 169.36 257.484 169.533 256.738 169.88C255.991 170.227 255.324 170.72 254.738 171.36C254.151 171.973 253.684 172.72 253.338 173.6C253.018 174.48 252.858 175.467 252.858 176.56V188H249.338V166.56H252.218L252.618 170.48H252.778C253.231 169.68 253.778 168.96 254.418 168.32C255.058 167.653 255.791 167.133 256.618 166.76C257.444 166.36 258.351 166.16 259.338 166.16ZM279.821 182.08C279.821 183.467 279.474 184.627 278.781 185.56C278.088 186.493 277.101 187.2 275.821 187.68C274.541 188.16 273.021 188.4 271.261 188.4C269.768 188.4 268.474 188.28 267.381 188.04C266.314 187.8 265.368 187.467 264.541 187.04V183.84C265.394 184.267 266.421 184.667 267.621 185.04C268.848 185.387 270.088 185.56 271.341 185.56C273.128 185.56 274.421 185.28 275.221 184.72C276.021 184.133 276.421 183.36 276.421 182.4C276.421 181.867 276.274 181.387 275.981 180.96C275.688 180.533 275.154 180.107 274.381 179.68C273.634 179.253 272.554 178.773 271.141 178.24C269.754 177.707 268.568 177.173 267.581 176.64C266.594 176.107 265.834 175.467 265.301 174.72C264.768 173.973 264.501 173.013 264.501 171.84C264.501 170.027 265.234 168.627 266.701 167.64C268.194 166.653 270.141 166.16 272.541 166.16C273.848 166.16 275.061 166.293 276.181 166.56C277.328 166.8 278.394 167.147 279.381 167.6L278.181 170.4C277.594 170.133 276.968 169.907 276.301 169.72C275.661 169.507 275.008 169.347 274.341 169.24C273.674 169.107 272.994 169.04 272.301 169.04C270.861 169.04 269.754 169.28 268.981 169.76C268.234 170.213 267.861 170.84 267.861 171.64C267.861 172.227 268.034 172.733 268.381 173.16C268.728 173.56 269.301 173.96 270.101 174.36C270.928 174.733 272.021 175.187 273.381 175.72C274.741 176.227 275.901 176.747 276.861 177.28C277.821 177.813 278.554 178.467 279.061 179.24C279.568 179.987 279.821 180.933 279.821 182.08ZM293.122 166.2C295.735 166.2 297.668 166.773 298.922 167.92C300.175 169.067 300.802 170.893 300.802 173.4V188H298.242L297.562 184.96H297.402C296.788 185.733 296.148 186.387 295.482 186.92C294.842 187.427 294.095 187.8 293.242 188.04C292.415 188.28 291.402 188.4 290.202 188.4C288.922 188.4 287.762 188.173 286.722 187.72C285.708 187.267 284.908 186.573 284.322 185.64C283.735 184.68 283.442 183.48 283.442 182.04C283.442 179.907 284.282 178.267 285.962 177.12C287.642 175.947 290.228 175.307 293.722 175.2L297.362 175.08V173.8C297.362 172.013 296.975 170.773 296.202 170.08C295.428 169.387 294.335 169.04 292.922 169.04C291.802 169.04 290.735 169.213 289.722 169.56C288.708 169.88 287.762 170.253 286.882 170.68L285.802 168.04C286.735 167.533 287.842 167.107 289.122 166.76C290.402 166.387 291.735 166.2 293.122 166.2ZM294.162 177.64C291.495 177.747 289.642 178.173 288.602 178.92C287.588 179.667 287.082 180.72 287.082 182.08C287.082 183.28 287.442 184.16 288.162 184.72C288.908 185.28 289.855 185.56 291.002 185.56C292.815 185.56 294.322 185.067 295.522 184.08C296.722 183.067 297.322 181.52 297.322 179.44V177.52L294.162 177.64ZM298.762 157.76C298.522 158.133 298.175 158.587 297.722 159.12C297.268 159.653 296.762 160.213 296.202 160.8C295.668 161.36 295.122 161.907 294.562 162.44C294.028 162.947 293.522 163.387 293.042 163.76H290.722V163.28C291.122 162.773 291.548 162.173 292.002 161.48C292.482 160.787 292.948 160.08 293.402 159.36C293.855 158.613 294.228 157.947 294.522 157.36H298.762V157.76ZM317.423 166.16C317.823 166.16 318.25 166.187 318.703 166.24C319.183 166.267 319.597 166.32 319.943 166.4L319.503 169.64C319.157 169.56 318.77 169.493 318.343 169.44C317.943 169.387 317.557 169.36 317.183 169.36C316.357 169.36 315.57 169.533 314.823 169.88C314.077 170.227 313.41 170.72 312.823 171.36C312.237 171.973 311.77 172.72 311.423 173.6C311.103 174.48 310.943 175.467 310.943 176.56V188H307.423V166.56H310.303L310.703 170.48H310.863C311.317 169.68 311.863 168.96 312.503 168.32C313.143 167.653 313.877 167.133 314.703 166.76C315.53 166.36 316.437 166.16 317.423 166.16ZM327.467 166.56V188H323.947V166.56H327.467ZM325.747 158.52C326.28 158.52 326.747 158.707 327.147 159.08C327.574 159.427 327.787 159.987 327.787 160.76C327.787 161.507 327.574 162.067 327.147 162.44C326.747 162.813 326.28 163 325.747 163C325.16 163 324.667 162.813 324.267 162.44C323.867 162.067 323.667 161.507 323.667 160.76C323.667 159.987 323.867 159.427 324.267 159.08C324.667 158.707 325.16 158.52 325.747 158.52ZM352.899 177.24C352.899 179.027 352.659 180.613 352.179 182C351.726 183.36 351.059 184.52 350.179 185.48C349.326 186.44 348.273 187.173 347.019 187.68C345.793 188.16 344.419 188.4 342.899 188.4C341.486 188.4 340.179 188.16 338.979 187.68C337.779 187.173 336.739 186.44 335.859 185.48C334.979 184.52 334.286 183.36 333.779 182C333.299 180.613 333.059 179.027 333.059 177.24C333.059 174.867 333.459 172.867 334.259 171.24C335.059 169.587 336.206 168.333 337.699 167.48C339.193 166.6 340.966 166.16 343.019 166.16C344.966 166.16 346.673 166.6 348.139 167.48C349.633 168.333 350.793 169.587 351.619 171.24C352.473 172.867 352.899 174.867 352.899 177.24ZM336.699 177.24C336.699 178.92 336.913 180.387 337.339 181.64C337.793 182.867 338.486 183.813 339.419 184.48C340.353 185.147 341.539 185.48 342.979 185.48C344.419 185.48 345.606 185.147 346.539 184.48C347.473 183.813 348.153 182.867 348.579 181.64C349.033 180.387 349.259 178.92 349.259 177.24C349.259 175.533 349.033 174.08 348.579 172.88C348.126 171.68 347.433 170.76 346.499 170.12C345.593 169.453 344.406 169.12 342.939 169.12C340.753 169.12 339.166 169.84 338.179 171.28C337.193 172.72 336.699 174.707 336.699 177.24ZM377.364 188H373.924V168.04C373.924 167.267 373.924 166.613 373.924 166.08C373.951 165.547 373.977 165.053 374.004 164.6C374.031 164.12 374.057 163.627 374.084 163.12C373.657 163.547 373.271 163.907 372.924 164.2C372.577 164.493 372.137 164.867 371.604 165.32L368.564 167.8L366.724 165.44L374.444 159.44H377.364V188ZM406.975 173.68C406.975 176 406.801 178.067 406.455 179.88C406.108 181.693 405.548 183.24 404.775 184.52C404.028 185.773 403.041 186.733 401.815 187.4C400.615 188.067 399.161 188.4 397.455 188.4C395.321 188.4 393.548 187.813 392.135 186.64C390.748 185.467 389.708 183.787 389.015 181.6C388.348 179.387 388.015 176.747 388.015 173.68C388.015 170.587 388.321 167.947 388.935 165.76C389.575 163.573 390.588 161.907 391.975 160.76C393.361 159.587 395.188 159 397.455 159C399.588 159 401.361 159.587 402.775 160.76C404.188 161.907 405.241 163.573 405.935 165.76C406.628 167.947 406.975 170.587 406.975 173.68ZM391.535 173.68C391.535 176.293 391.721 178.467 392.095 180.2C392.495 181.933 393.121 183.24 393.975 184.12C394.855 184.973 396.015 185.4 397.455 185.4C398.895 185.4 400.041 184.973 400.895 184.12C401.775 183.267 402.415 181.973 402.815 180.24C403.215 178.48 403.415 176.293 403.415 173.68C403.415 171.067 403.215 168.907 402.815 167.2C402.415 165.467 401.775 164.173 400.895 163.32C400.041 162.44 398.895 162 397.455 162C396.015 162 394.855 162.44 393.975 163.32C393.121 164.173 392.495 165.467 392.095 167.2C391.721 168.907 391.535 171.067 391.535 173.68ZM428.551 166.2C431.165 166.2 433.098 166.773 434.351 167.92C435.605 169.067 436.231 170.893 436.231 173.4V188H433.671L432.991 184.96H432.831C432.218 185.733 431.578 186.387 430.911 186.92C430.271 187.427 429.525 187.8 428.671 188.04C427.845 188.28 426.831 188.4 425.631 188.4C424.351 188.4 423.191 188.173 422.151 187.72C421.138 187.267 420.338 186.573 419.751 185.64C419.165 184.68 418.871 183.48 418.871 182.04C418.871 179.907 419.711 178.267 421.391 177.12C423.071 175.947 425.658 175.307 429.151 175.2L432.791 175.08V173.8C432.791 172.013 432.405 170.773 431.631 170.08C430.858 169.387 429.765 169.04 428.351 169.04C427.231 169.04 426.165 169.213 425.151 169.56C424.138 169.88 423.191 170.253 422.311 170.68L421.231 168.04C422.165 167.533 423.271 167.107 424.551 166.76C425.831 166.387 427.165 166.2 428.551 166.2ZM429.591 177.64C426.925 177.747 425.071 178.173 424.031 178.92C423.018 179.667 422.511 180.72 422.511 182.08C422.511 183.28 422.871 184.16 423.591 184.72C424.338 185.28 425.285 185.56 426.431 185.56C428.245 185.56 429.751 185.067 430.951 184.08C432.151 183.067 432.751 181.52 432.751 179.44V177.52L429.591 177.64ZM453.173 166.16C455.733 166.16 457.666 166.787 458.973 168.04C460.28 169.267 460.933 171.267 460.933 174.04V188H457.453V174.28C457.453 172.547 457.066 171.253 456.293 170.4C455.52 169.547 454.306 169.12 452.653 169.12C450.28 169.12 448.64 169.787 447.733 171.12C446.826 172.453 446.373 174.373 446.373 176.88V188H442.853V166.56H445.693L446.213 169.48H446.413C446.893 168.733 447.48 168.12 448.173 167.64C448.893 167.133 449.68 166.76 450.533 166.52C451.386 166.28 452.266 166.16 453.173 166.16ZM486.22 177.24C486.22 179.027 485.98 180.613 485.5 182C485.046 183.36 484.38 184.52 483.5 185.48C482.646 186.44 481.593 187.173 480.34 187.68C479.113 188.16 477.74 188.4 476.22 188.4C474.806 188.4 473.5 188.16 472.3 187.68C471.1 187.173 470.06 186.44 469.18 185.48C468.3 184.52 467.606 183.36 467.1 182C466.62 180.613 466.38 179.027 466.38 177.24C466.38 174.867 466.78 172.867 467.58 171.24C468.38 169.587 469.526 168.333 471.02 167.48C472.513 166.6 474.286 166.16 476.34 166.16C478.286 166.16 479.993 166.6 481.46 167.48C482.953 168.333 484.113 169.587 484.94 171.24C485.793 172.867 486.22 174.867 486.22 177.24ZM470.02 177.24C470.02 178.92 470.233 180.387 470.66 181.64C471.113 182.867 471.806 183.813 472.74 184.48C473.673 185.147 474.86 185.48 476.3 185.48C477.74 185.48 478.926 185.147 479.86 184.48C480.793 183.813 481.473 182.867 481.9 181.64C482.353 180.387 482.58 178.92 482.58 177.24C482.58 175.533 482.353 174.08 481.9 172.88C481.446 171.68 480.753 170.76 479.82 170.12C478.913 169.453 477.726 169.12 476.26 169.12C474.073 169.12 472.486 169.84 471.5 171.28C470.513 172.72 470.02 174.707 470.02 177.24ZM505.758 182.08C505.758 183.467 505.412 184.627 504.718 185.56C504.025 186.493 503.038 187.2 501.758 187.68C500.478 188.16 498.958 188.4 497.198 188.4C495.705 188.4 494.412 188.28 493.318 188.04C492.252 187.8 491.305 187.467 490.478 187.04V183.84C491.332 184.267 492.358 184.667 493.558 185.04C494.785 185.387 496.025 185.56 497.278 185.56C499.065 185.56 500.358 185.28 501.158 184.72C501.958 184.133 502.358 183.36 502.358 182.4C502.358 181.867 502.212 181.387 501.918 180.96C501.625 180.533 501.092 180.107 500.318 179.68C499.572 179.253 498.492 178.773 497.078 178.24C495.692 177.707 494.505 177.173 493.518 176.64C492.532 176.107 491.772 175.467 491.238 174.72C490.705 173.973 490.438 173.013 490.438 171.84C490.438 170.027 491.172 168.627 492.638 167.64C494.132 166.653 496.078 166.16 498.478 166.16C499.785 166.16 500.998 166.293 502.118 166.56C503.265 166.8 504.332 167.147 505.318 167.6L504.118 170.4C503.532 170.133 502.905 169.907 502.238 169.72C501.598 169.507 500.945 169.347 500.278 169.24C499.612 169.107 498.932 169.04 498.238 169.04C496.798 169.04 495.692 169.28 494.918 169.76C494.172 170.213 493.798 170.84 493.798 171.64C493.798 172.227 493.972 172.733 494.318 173.16C494.665 173.56 495.238 173.96 496.038 174.36C496.865 174.733 497.958 175.187 499.318 175.72C500.678 176.227 501.838 176.747 502.798 177.28C503.758 177.813 504.492 178.467 504.998 179.24C505.505 179.987 505.758 180.933 505.758 182.08ZM160.073 209.44C163.806 209.44 166.526 210.173 168.233 211.64C169.939 213.107 170.793 215.173 170.793 217.84C170.793 219.013 170.593 220.147 170.193 221.24C169.819 222.307 169.193 223.267 168.313 224.12C167.433 224.973 166.259 225.653 164.793 226.16C163.326 226.64 161.526 226.88 159.393 226.88H156.113V238H152.513V209.44H160.073ZM159.753 212.52H156.113V223.8H158.993C160.806 223.8 162.313 223.613 163.513 223.24C164.713 222.84 165.606 222.213 166.193 221.36C166.779 220.507 167.073 219.387 167.073 218C167.073 216.16 166.486 214.787 165.313 213.88C164.139 212.973 162.286 212.52 159.753 212.52ZM172.892 216.56H176.652L181.292 228.76C181.558 229.48 181.798 230.173 182.012 230.84C182.252 231.507 182.465 232.16 182.652 232.8C182.838 233.413 182.985 234.013 183.092 234.6H183.252C183.412 233.933 183.665 233.067 184.012 232C184.358 230.907 184.718 229.813 185.092 228.72L189.452 216.56H193.252L184.012 240.96C183.505 242.293 182.905 243.453 182.212 244.44C181.545 245.453 180.718 246.227 179.732 246.76C178.772 247.32 177.598 247.6 176.212 247.6C175.572 247.6 175.012 247.56 174.532 247.48C174.052 247.427 173.638 247.36 173.292 247.28V244.48C173.585 244.533 173.932 244.587 174.332 244.64C174.758 244.693 175.198 244.72 175.652 244.72C176.478 244.72 177.185 244.56 177.772 244.24C178.385 243.947 178.905 243.507 179.332 242.92C179.758 242.36 180.118 241.693 180.412 240.92L181.532 238.08L172.892 216.56ZM200.162 238H196.642V207.6H200.162V238ZM215.075 216.2C217.688 216.2 219.621 216.773 220.875 217.92C222.128 219.067 222.755 220.893 222.755 223.4V238H220.195L219.515 234.96H219.355C218.741 235.733 218.101 236.387 217.435 236.92C216.795 237.427 216.048 237.8 215.195 238.04C214.368 238.28 213.355 238.4 212.155 238.4C210.875 238.4 209.715 238.173 208.675 237.72C207.661 237.267 206.861 236.573 206.275 235.64C205.688 234.68 205.395 233.48 205.395 232.04C205.395 229.907 206.235 228.267 207.915 227.12C209.595 225.947 212.181 225.307 215.675 225.2L219.315 225.08V223.8C219.315 222.013 218.928 220.773 218.155 220.08C217.381 219.387 216.288 219.04 214.875 219.04C213.755 219.04 212.688 219.213 211.675 219.56C210.661 219.88 209.715 220.253 208.835 220.68L207.755 218.04C208.688 217.533 209.795 217.107 211.075 216.76C212.355 216.387 213.688 216.2 215.075 216.2ZM216.115 227.64C213.448 227.747 211.595 228.173 210.555 228.92C209.541 229.667 209.035 230.72 209.035 232.08C209.035 233.28 209.395 234.16 210.115 234.72C210.861 235.28 211.808 235.56 212.955 235.56C214.768 235.56 216.275 235.067 217.475 234.08C218.675 233.067 219.275 231.52 219.275 229.44V227.52L216.115 227.64ZM236.977 238.4C234.31 238.4 232.177 237.48 230.577 235.64C228.977 233.773 228.177 231 228.177 227.32C228.177 223.64 228.977 220.867 230.577 219C232.203 217.107 234.35 216.16 237.017 216.16C238.137 216.16 239.11 216.307 239.937 216.6C240.763 216.867 241.483 217.24 242.097 217.72C242.71 218.2 243.23 218.733 243.657 219.32H243.897C243.87 218.973 243.817 218.467 243.737 217.8C243.683 217.107 243.657 216.56 243.657 216.16V207.6H247.177V238H244.337L243.817 235.12H243.657C243.23 235.733 242.71 236.293 242.097 236.8C241.483 237.28 240.75 237.667 239.897 237.96C239.07 238.253 238.097 238.4 236.977 238.4ZM237.537 235.48C239.803 235.48 241.39 234.867 242.297 233.64C243.23 232.387 243.697 230.507 243.697 228V227.36C243.697 224.693 243.257 222.653 242.377 221.24C241.497 219.8 239.87 219.08 237.497 219.08C235.603 219.08 234.177 219.84 233.217 221.36C232.283 222.853 231.817 224.867 231.817 227.4C231.817 229.96 232.283 231.947 233.217 233.36C234.177 234.773 235.617 235.48 237.537 235.48ZM257.506 216.56V238H253.986V216.56H257.506ZM255.786 208.52C256.319 208.52 256.786 208.707 257.186 209.08C257.613 209.427 257.826 209.987 257.826 210.76C257.826 211.507 257.613 212.067 257.186 212.44C256.786 212.813 256.319 213 255.786 213C255.199 213 254.706 212.813 254.306 212.44C253.906 212.067 253.706 211.507 253.706 210.76C253.706 209.987 253.906 209.427 254.306 209.08C254.706 208.707 255.199 208.52 255.786 208.52ZM272.578 216.16C274.418 216.16 275.992 216.56 277.298 217.36C278.632 218.16 279.645 219.293 280.338 220.76C281.058 222.2 281.418 223.893 281.418 225.84V227.96H266.738C266.792 230.387 267.405 232.24 268.578 233.52C269.778 234.773 271.445 235.4 273.578 235.4C274.938 235.4 276.138 235.28 277.178 235.04C278.245 234.773 279.338 234.4 280.458 233.92V237C279.365 237.48 278.285 237.827 277.218 238.04C276.152 238.28 274.885 238.4 273.418 238.4C271.392 238.4 269.592 237.987 268.018 237.16C266.472 236.333 265.258 235.107 264.378 233.48C263.525 231.827 263.098 229.813 263.098 227.44C263.098 225.093 263.485 223.08 264.258 221.4C265.058 219.72 266.165 218.427 267.578 217.52C269.018 216.613 270.685 216.16 272.578 216.16ZM272.538 219.04C270.858 219.04 269.525 219.587 268.538 220.68C267.578 221.747 267.005 223.24 266.818 225.16H277.738C277.738 223.933 277.552 222.867 277.178 221.96C276.805 221.053 276.232 220.347 275.458 219.84C274.712 219.307 273.738 219.04 272.538 219.04ZM300.837 232.08C300.837 233.467 300.49 234.627 299.797 235.56C299.103 236.493 298.117 237.2 296.837 237.68C295.557 238.16 294.037 238.4 292.277 238.4C290.783 238.4 289.49 238.28 288.397 238.04C287.33 237.8 286.383 237.467 285.557 237.04V233.84C286.41 234.267 287.437 234.667 288.637 235.04C289.863 235.387 291.103 235.56 292.357 235.56C294.143 235.56 295.437 235.28 296.237 234.72C297.037 234.133 297.437 233.36 297.437 232.4C297.437 231.867 297.29 231.387 296.997 230.96C296.703 230.533 296.17 230.107 295.397 229.68C294.65 229.253 293.57 228.773 292.157 228.24C290.77 227.707 289.583 227.173 288.597 226.64C287.61 226.107 286.85 225.467 286.317 224.72C285.783 223.973 285.517 223.013 285.517 221.84C285.517 220.027 286.25 218.627 287.717 217.64C289.21 216.653 291.157 216.16 293.557 216.16C294.863 216.16 296.077 216.293 297.197 216.56C298.343 216.8 299.41 217.147 300.397 217.6L299.197 220.4C298.61 220.133 297.983 219.907 297.317 219.72C296.677 219.507 296.023 219.347 295.357 219.24C294.69 219.107 294.01 219.04 293.317 219.04C291.877 219.04 290.77 219.28 289.997 219.76C289.25 220.213 288.877 220.84 288.877 221.64C288.877 222.227 289.05 222.733 289.397 223.16C289.743 223.56 290.317 223.96 291.117 224.36C291.943 224.733 293.037 225.187 294.397 225.72C295.757 226.227 296.917 226.747 297.877 227.28C298.837 227.813 299.57 228.467 300.077 229.24C300.583 229.987 300.837 230.933 300.837 232.08ZM338.869 230.36C338.869 232.067 338.456 233.52 337.629 234.72C336.802 235.893 335.616 236.8 334.069 237.44C332.549 238.08 330.749 238.4 328.669 238.4C327.602 238.4 326.576 238.347 325.589 238.24C324.629 238.133 323.749 237.987 322.949 237.8C322.149 237.587 321.442 237.333 320.829 237.04V233.6C321.789 234.027 322.976 234.413 324.389 234.76C325.829 235.107 327.309 235.28 328.829 235.28C330.242 235.28 331.429 235.093 332.389 234.72C333.349 234.347 334.069 233.813 334.549 233.12C335.029 232.427 335.269 231.613 335.269 230.68C335.269 229.747 335.069 228.96 334.669 228.32C334.269 227.68 333.576 227.093 332.589 226.56C331.629 226 330.282 225.413 328.549 224.8C327.322 224.347 326.242 223.867 325.309 223.36C324.402 222.827 323.642 222.227 323.029 221.56C322.416 220.893 321.949 220.133 321.629 219.28C321.336 218.427 321.189 217.44 321.189 216.32C321.189 214.8 321.576 213.507 322.349 212.44C323.122 211.347 324.189 210.507 325.549 209.92C326.936 209.333 328.522 209.04 330.309 209.04C331.882 209.04 333.322 209.187 334.629 209.48C335.936 209.773 337.122 210.16 338.189 210.64L337.069 213.72C336.082 213.293 335.002 212.933 333.829 212.64C332.682 212.347 331.482 212.2 330.229 212.2C329.029 212.2 328.029 212.373 327.229 212.72C326.429 213.067 325.829 213.56 325.429 214.2C325.029 214.813 324.829 215.533 324.829 216.36C324.829 217.32 325.029 218.12 325.429 218.76C325.829 219.4 326.482 219.973 327.389 220.48C328.296 220.987 329.522 221.533 331.069 222.12C332.749 222.733 334.162 223.4 335.309 224.12C336.482 224.813 337.362 225.653 337.949 226.64C338.562 227.627 338.869 228.867 338.869 230.36ZM352.262 216.2C354.876 216.2 356.809 216.773 358.062 217.92C359.316 219.067 359.942 220.893 359.942 223.4V238H357.382L356.702 234.96H356.542C355.929 235.733 355.289 236.387 354.622 236.92C353.982 237.427 353.236 237.8 352.382 238.04C351.556 238.28 350.542 238.4 349.342 238.4C348.062 238.4 346.902 238.173 345.862 237.72C344.849 237.267 344.049 236.573 343.462 235.64C342.876 234.68 342.582 233.48 342.582 232.04C342.582 229.907 343.422 228.267 345.102 227.12C346.782 225.947 349.369 225.307 352.862 225.2L356.502 225.08V223.8C356.502 222.013 356.116 220.773 355.342 220.08C354.569 219.387 353.476 219.04 352.062 219.04C350.942 219.04 349.876 219.213 348.862 219.56C347.849 219.88 346.902 220.253 346.022 220.68L344.942 218.04C345.876 217.533 346.982 217.107 348.262 216.76C349.542 216.387 350.876 216.2 352.262 216.2ZM353.302 227.64C350.636 227.747 348.782 228.173 347.742 228.92C346.729 229.667 346.222 230.72 346.222 232.08C346.222 233.28 346.582 234.16 347.302 234.72C348.049 235.28 348.996 235.56 350.142 235.56C351.956 235.56 353.462 235.067 354.662 234.08C355.862 233.067 356.462 231.52 356.462 229.44V227.52L353.302 227.64ZM344.662 213.76C344.742 212.96 344.889 212.253 345.102 211.64C345.342 211 345.649 210.467 346.022 210.04C346.396 209.587 346.836 209.24 347.342 209C347.849 208.76 348.422 208.64 349.062 208.64C349.649 208.64 350.209 208.76 350.742 209C351.302 209.213 351.836 209.48 352.342 209.8C352.849 210.093 353.329 210.36 353.782 210.6C354.262 210.813 354.716 210.92 355.142 210.92C355.756 210.92 356.222 210.733 356.542 210.36C356.889 209.96 357.156 209.373 357.342 208.6H359.342C359.182 210.147 358.729 211.387 357.982 212.32C357.236 213.253 356.236 213.72 354.982 213.72C354.422 213.72 353.876 213.613 353.342 213.4C352.809 213.16 352.276 212.893 351.742 212.6C351.236 212.28 350.742 212.013 350.262 211.8C349.809 211.56 349.356 211.44 348.902 211.44C348.262 211.44 347.782 211.64 347.462 212.04C347.142 212.413 346.889 212.987 346.702 213.76H344.662ZM385.204 227.24C385.204 229.027 384.964 230.613 384.484 232C384.031 233.36 383.364 234.52 382.484 235.48C381.631 236.44 380.577 237.173 379.324 237.68C378.097 238.16 376.724 238.4 375.204 238.4C373.791 238.4 372.484 238.16 371.284 237.68C370.084 237.173 369.044 236.44 368.164 235.48C367.284 234.52 366.591 233.36 366.084 232C365.604 230.613 365.364 229.027 365.364 227.24C365.364 224.867 365.764 222.867 366.564 221.24C367.364 219.587 368.511 218.333 370.004 217.48C371.497 216.6 373.271 216.16 375.324 216.16C377.271 216.16 378.977 216.6 380.444 217.48C381.937 218.333 383.097 219.587 383.924 221.24C384.777 222.867 385.204 224.867 385.204 227.24ZM369.004 227.24C369.004 228.92 369.217 230.387 369.644 231.64C370.097 232.867 370.791 233.813 371.724 234.48C372.657 235.147 373.844 235.48 375.284 235.48C376.724 235.48 377.911 235.147 378.844 234.48C379.777 233.813 380.457 232.867 380.884 231.64C381.337 230.387 381.564 228.92 381.564 227.24C381.564 225.533 381.337 224.08 380.884 222.88C380.431 221.68 379.737 220.76 378.804 220.12C377.897 219.453 376.711 219.12 375.244 219.12C373.057 219.12 371.471 219.84 370.484 221.28C369.497 222.72 369.004 224.707 369.004 227.24ZM406.909 209.44C410.642 209.44 413.362 210.173 415.069 211.64C416.775 213.107 417.629 215.173 417.629 217.84C417.629 219.013 417.429 220.147 417.029 221.24C416.655 222.307 416.029 223.267 415.149 224.12C414.269 224.973 413.095 225.653 411.629 226.16C410.162 226.64 408.362 226.88 406.229 226.88H402.949V238H399.349V209.44H406.909ZM406.589 212.52H402.949V223.8H405.829C407.642 223.8 409.149 223.613 410.349 223.24C411.549 222.84 412.442 222.213 413.029 221.36C413.615 220.507 413.909 219.387 413.909 218C413.909 216.16 413.322 214.787 412.149 213.88C410.975 212.973 409.122 212.52 406.589 212.52ZM431.208 216.2C433.821 216.2 435.754 216.773 437.008 217.92C438.261 219.067 438.888 220.893 438.888 223.4V238H436.328L435.648 234.96H435.488C434.874 235.733 434.234 236.387 433.568 236.92C432.928 237.427 432.181 237.8 431.328 238.04C430.501 238.28 429.488 238.4 428.288 238.4C427.008 238.4 425.848 238.173 424.808 237.72C423.794 237.267 422.994 236.573 422.408 235.64C421.821 234.68 421.528 233.48 421.528 232.04C421.528 229.907 422.368 228.267 424.048 227.12C425.728 225.947 428.314 225.307 431.808 225.2L435.448 225.08V223.8C435.448 222.013 435.061 220.773 434.288 220.08C433.514 219.387 432.421 219.04 431.008 219.04C429.888 219.04 428.821 219.213 427.808 219.56C426.794 219.88 425.848 220.253 424.967 220.68L423.888 218.04C424.821 217.533 425.928 217.107 427.208 216.76C428.488 216.387 429.821 216.2 431.208 216.2ZM432.248 227.64C429.581 227.747 427.728 228.173 426.688 228.92C425.674 229.667 425.168 230.72 425.168 232.08C425.168 233.28 425.528 234.16 426.248 234.72C426.994 235.28 427.941 235.56 429.088 235.56C430.901 235.56 432.408 235.067 433.608 234.08C434.808 233.067 435.408 231.52 435.408 229.44V227.52L432.248 227.64ZM463.429 216.56V238H460.549L460.029 235.16H459.869C459.416 235.907 458.829 236.52 458.109 237C457.389 237.48 456.603 237.827 455.749 238.04C454.896 238.28 454.003 238.4 453.069 238.4C451.363 238.4 449.923 238.133 448.749 237.6C447.603 237.04 446.736 236.187 446.149 235.04C445.563 233.893 445.269 232.413 445.269 230.6V216.56H448.829V230.36C448.829 232.067 449.216 233.347 449.989 234.2C450.763 235.053 451.963 235.48 453.589 235.48C455.189 235.48 456.443 235.187 457.349 234.6C458.283 233.987 458.936 233.107 459.309 231.96C459.709 230.787 459.909 229.373 459.909 227.72V216.56H463.429ZM473.756 238H470.236V207.6H473.756V238ZM499.188 227.24C499.188 229.027 498.948 230.613 498.468 232C498.015 233.36 497.348 234.52 496.468 235.48C495.615 236.44 494.562 237.173 493.308 237.68C492.082 238.16 490.708 238.4 489.188 238.4C487.775 238.4 486.468 238.16 485.268 237.68C484.068 237.173 483.028 236.44 482.148 235.48C481.268 234.52 480.575 233.36 480.068 232C479.588 230.613 479.348 229.027 479.348 227.24C479.348 224.867 479.748 222.867 480.548 221.24C481.348 219.587 482.495 218.333 483.988 217.48C485.482 216.6 487.255 216.16 489.308 216.16C491.255 216.16 492.962 216.6 494.428 217.48C495.922 218.333 497.082 219.587 497.908 221.24C498.762 222.867 499.188 224.867 499.188 227.24ZM482.988 227.24C482.988 228.92 483.202 230.387 483.628 231.64C484.082 232.867 484.775 233.813 485.708 234.48C486.642 235.147 487.828 235.48 489.268 235.48C490.708 235.48 491.895 235.147 492.828 234.48C493.762 233.813 494.442 232.867 494.868 231.64C495.322 230.387 495.548 228.92 495.548 227.24C495.548 225.533 495.322 224.08 494.868 222.88C494.415 221.68 493.722 220.76 492.788 220.12C491.882 219.453 490.695 219.12 489.228 219.12C487.042 219.12 485.455 219.84 484.468 221.28C483.482 222.72 482.988 224.707 482.988 227.24Z" fill="white"/>
</svg>
