<?xml version="1.0" encoding="UTF-8"?>
<svg xmlns="http://www.w3.org/2000/svg" viewBox="0 0 1308.58 539.74">
  <defs>
    <style>
      .cls-1 {
        fill: #eaeaea;
      }

      .cls-2 {
        fill: #cecece;
      }

      .cls-3 {
        fill: #ed1c29;
      }

      .cls-4 {
        isolation: isolate;
      }

      .cls-5 {
        mix-blend-mode: multiply;
      }

      .cls-6 {
        fill: #fff;
      }
    </style>
  </defs>
  <g class="cls-4">
    <g id="Layer_2" data-name="Layer 2">
      <g id="Design">
        <g>
          <path class="cls-6" d="M780.29,181.46s2.57,15,3.02,25.16c.45,10.16-4.69,17.56-4.69,17.56,0,0-3.04,5.08.06,12.44,3.1,7.36,7.86,15.4,10.69,22.73,1.77,4.34,6,10.48-4.66,15.76,0,0-5.22.18-6.02,3.31-.8,3.13,1.38,3.17,1.74,5.39.35,2.22-.05,5.84-6.88,6.51,0,0,7.01,5.73,1.74,10.93,0,0-6.78.36-6.44,6.6.34,6.23,4.06,11.54-7.64,18.71-11.69,7.18-34.08-7.14-34.08-7.14,0,0-9.58-4.5-13.14,5.87-3.56,10.37-5.94,25.06,2.84,30.5,4.59,1.81,15.22,4.12,28.13-.77,9.31-1.09,20.38,4.57,20.38,4.57,0,0,15.21,3.44,25.39,11.49s10.75,15.29,18.35,46.44c7.6,31.14,6.94,31.9,6.94,31.9l-237.04,37.79-14.86-93.2s9.35-15.96,25.15-19.85l13.96-11.12s19.95-18.92,24.93-44.15c-3.94-8.17-3.54-11.75-2.95-15.46l-3.9-3s-11.69,10.66-15.26-5.58c-9.08-8.52-8.16-8.87-9.2-12.32-4.29-6.06-4.91-7.53-4.94-12.6-5.85-6.01-8.97-7.86-9.57-11.57s-3.49-7.17-1.78-11.15c0,0-6.02-6.47-4.85-14.48-4.63-5.13-4.85-7.14-5.1-8.67-9.52-4.54-23.53-12.08-15.94-34.41-2.17-19.15-2.49-22.04.63-28.25,0,0-1.36-16.79,8.11-25.49,2.4-6.1,3.15-14.28,11.26-16.75,3.74-4.12,4.74-4.28,8.82-4.48,0,0,2.02-10.29,9.04-13.17,4.46-1.44,3.23-9.17,21.04-13.33,11.62-3.47,38.64-11.44,55.11,7.83,5.02-.41,7.32,4.21,7.32,4.21,0,0,1.94-.11,4.87,2.94,3.98-1.42,14.67,6.17,14.34,21.27,14.42.93,18.41,2.05,18.41,2.05,0,0,37.05,1.28,61.99,39.97,6.09,10.61,4.69,14.99,4.69,14.99Z"/>
          <path class="cls-6" d="M1113.53,240.9c-.84-.74-4.04-2.82-12.98-1.75-11.12.53-26.92,2.05-31.46-5.92-4.54-7.97-1.38-13.65-.62-15.42s-.19-5.63-4.2-7.54c-4.01-1.91-3.15-8.93,8.69-10.07,1.19-.19,2.96-1.53-10.55-5.16,0,0-6.16-1.29-2.43-7.64,1.96-3.39,4.54-9.6-2.58-11.31-7.11-1.72-10.45-7.69-8.93-11.27,1.58-3.58,20.6-17.21,22.17-24.37,1.58-7.16-5.59-14.32-6.59-18.69-1.6-6.96.71-13.87,2.46-20.56,1.76-6.76,2.36-13.76,4.33-20.47,1.02-3.5,2.61-6.8,3.85-10.23,1.32-3.64,1.55-7.19,2.22-10.96.61-3.46,1.86-6.76,3.77-9.72,5.45-8.49,15.15-13.66,24.21-17.44,20.09-8.39,42.19-13.41,64.13-12.53,11.31.45,22.55,2.75,33.17,6.64,7.47,2.73,14.76,6.28,20.95,11.33,6.51,5.31,11.49,12.52,15.59,19.79,8.08,14.33,13.44,30.15,16.23,46.33.65,3.75,1.09,7.44,1.32,11.23.07,1.05.35,2.16,1.15,2.85.43.37.97.59,1.5.81,13.21,5.34,25.71,13.19,35.4,23.72,12.41,13.49,13.5,32.59,14.05,50.01.58,18.39-.15,36.85-1.7,55.18-1.05,12.44-2.21,25.15-5.24,37.29l-4.73-20.19,3.01,33.51s-9.45-15.9-9.45-13.32,16.45,58.86,16.45,58.86l-20.32-33.51s9.45,59.72,9.45,59.72c-13.97-23.62-28.32-47.85-38.59-73.33-5.32-13.2-1.74-27.34.67-40.88,2.59-14.55,5.65-29.01,8.71-43.47.91-7.15,1.66-14.32,2.12-21.51.37-5.75.55-11.52.38-17.29-.13-4.37-.46-8.76-1.27-13.06-.53-2.79-1.17-5.68-2.47-8.25-.64-1.29-1.46-2.5-2.49-3.51-1.2-1.17-2.8-1.18-4.39-1.15-1.79.03-3.56.37-5.31.76-1.91.42-4.37,1.17-5.54-.93-.45.56-.64,1.35-.87,2.01-.28.83-.5,1.68-.68,2.54-.36,1.7-.57,3.43-.84,5.14-.21,1.33-.43,2.65-.75,3.96-1.46,5.78-3.46,11.39-6.18,16.7-6.4,12.47-16.23,22.87-26.85,31.86-1,14.18-1.58,29.22-1.58,29.22,0,0,7.73,0,9.17,21.2,4.87,5.59,6.73,7.59,8.88,13.32,8.31,6.59,39.53,52.13,52.7,83.35,21.2,37.52,26.26,47.09,26.26,47.09l-.21,47.65h-287.8v-69.54s24.58-27.07,29.02-41.96c7.3-20.48,27.07-52.85,34.51-60.44,9.17-10.45,19.19-18.55,41.46-23.49,0,0-2.93-10.13-9.69-14.65-.25-.17-.48-.35-.71-.55Z"/>
          <path class="cls-6" d="M206.21,180.01c-.25.75-.46,1.52-.61,2.32-.86,4.7-1.52,9.42-2.27,14.13-.31,1.92-.59,3.85-.91,5.77-.27,1.63-.42,4.5-1.47,5.84-2.16,2.8-1.76,2.51-4.64,3.98-2.88,1.47-13.27,11.92-5.64,13.45,0,0-3.16.58-5.09-1.62l.89,21.14s-.09,10.52-10.48,3.95c-1.28-.81-3.15-1.88-4.45-.47-1.1,1.18-.91,2.93-1.18,4.4-.26,1.4-.95,2.83-2.18,3.61-.33.21-.6.39-.87.69-1.2,1.37-2.89,1.47-4.53.82,0,0,2.44,5.06-.18,7.33s-5.63,5.12-6.04,8.11-1.67,11.04-11.53,11.53c-4.57-.67-9.14-1.64-13.47-3.25-1.34-.5-2.67-1.02-3.93-1.71-.65-.35-1.2-.85-1.76-1.33-.42-.36-.83-.87-1.35-1.08-.42-.17-.56.24-.77.57-.72,1.09-1.34,2.28-1.76,3.53-.38,1.15-.68,2.33-.91,3.53-.62,3.28-.72,6.65-.44,9.98.91,10.98,5.74,21.36,11.73,30.46.58.88,1.17,1.74,1.77,2.6,22.75,32.4,30.61,42.46,30.61,42.46,0,0,10.34,9.1,15.72,22.47s16.68,32.54,10.62,57.49H0l2.39-13.14s-.92-8.58,3.37-12.13c1.53-8.88-2.33-12.93,2.7-16.97,5.02-4.04.43-4.66,1.41-11.15s-2.08-7.29,1.84-13.3-1.1-4.84,1.53-11.27-2.08-6.49-.67-12.87c1.41-6.37,3.37-9.19,3.55-17.77s2.7-15.32,4.04-19.61c1.35-4.29,3-9.24,7.28-16.68,3.03-12.26,5.84-26.39,13.79-36.53.07-.09.14-.19.21-.29,1.08-1.78.67-5.24.77-7.41.11-2.36.17-4.73.21-7.09.06-3.89,0-7.79.03-11.68.03-6.85.55-13.58,2.43-20.2.86-3.04,2.09-5.92,3.12-8.89,2.83-8.14,4.72-16.49,6.57-24.89,1.53-6.91,3.28-13.86,7.88-19.44,2.65-3.22,3.95-7.77,5.45-11.64.86-2.21,1.63-4.44,2.44-6.67,1.31-3.63,3.47-6.67,5.69-9.81,5.26-7.41,9.22-15.65,14.85-22.8,4.05-5.16,8.76-9.83,14.22-13.5,10.81-7.26,23.78-9.72,36.64-8.71,5.06.4,11.07.8,15.89,2.53,2.17.78,4.1,2.03,5.9,3.46,1.58,1.25,2.87,2.82,4.38,4.15,1.73,1.54,3.56,2.19,5.63,3.13,2.87,1.3,5.97,2.92,7.77,5.62.39.58,3.59,1.11,4.39,1.49,1.32.63,2.53,1.44,3.58,2.46,2.73,2.66,3.32,6.14,5.27,9.2,1.42,2.22,4.31,3.75,6,5.89,1.12,1.43,1.82,3.09,2.38,4.8.61,1.85,1.56,2.7,2.54,4.31.84,1.39,1.55,2.86,2.17,4.36,1.42,3.47,2.35,7.16,2.78,10.88.46,4,.36,8.09-.53,12.02-.76,3.35-2.58,6.23-3.66,9.44Z"/>
          <path class="cls-1" d="M557.61,157.14c-.32.97-.59,1.96-.78,2.99-1.1,6.05-1.96,12.14-2.92,18.21-.39,2.48-.76,4.96-1.17,7.44-.35,2.1-.55,5.8-1.89,7.53-2.78,3.61-2.27,3.24-5.98,5.13-3.71,1.9-17.1,15.36-7.27,17.34,0,0-4.07.75-6.56-2.09l1.15,27.25s-.12,13.56-13.51,5.09c-1.65-1.05-4.06-2.42-5.74-.61-1.41,1.53-1.17,3.78-1.52,5.68-.33,1.81-1.22,3.65-2.82,4.65-.43.27-.78.51-1.12.89-1.55,1.76-3.72,1.9-5.84,1.06,0,0,3.14,6.52-.24,9.45s-7.26,6.6-7.79,10.45c-.53,3.85-2.15,14.24-14.87,14.87-5.88-.87-11.78-2.11-17.36-4.2-1.72-.64-3.45-1.31-5.06-2.2-.83-.46-1.55-1.1-2.27-1.71-.54-.46-1.07-1.12-1.74-1.39-.55-.22-.72.31-.99.73-.93,1.41-1.73,2.94-2.27,4.55-.5,1.48-.88,3.01-1.17,4.54-.8,4.23-.93,8.58-.57,12.86,1.17,14.16,7.4,27.54,15.12,39.26.74,1.13,1.51,2.25,2.28,3.36,29.32,41.76,39.45,54.73,39.45,54.73,0,0,13.33,11.73,20.26,28.97,6.93,17.24,21.5,41.94,13.68,74.1h-246.3l3.08-16.94s-1.18-11.06,4.34-15.64c1.97-11.45-3-16.66,3.48-21.88,6.48-5.21.55-6,1.82-14.37,1.26-8.37-2.69-9.4,2.37-17.14,5.05-7.74-1.42-6.24,1.97-14.53s-2.69-8.37-.87-16.59,4.34-11.85,4.58-22.9c.24-11.06,3.48-19.74,5.21-25.27,1.74-5.53,3.87-11.91,9.38-21.5,3.86-15.62,7.44-33.61,17.43-46.65.33-.43.67-.87.89-1.37,1.03-2.4.59-6.41.7-9,.14-3.05.22-6.09.27-9.14.07-5.02,0-10.03.03-15.05.04-8.83.71-17.51,3.13-26.04,1.11-3.92,2.69-7.63,4.02-11.46,3.65-10.5,6.08-21.26,8.47-32.09,1.97-8.91,4.23-17.86,10.16-25.06,3.42-4.15,5.09-10.02,7.03-15,1.11-2.84,2.1-5.73,3.14-8.6,1.69-4.68,4.47-8.6,7.34-12.65,6.78-9.55,11.89-20.17,19.14-29.39,5.23-6.65,11.29-12.67,18.33-17.4,13.93-9.36,30.66-12.53,47.23-11.22,6.53.52,14.27,1.03,20.49,3.26,2.79,1.01,5.28,2.62,7.6,4.45,2.04,1.62,3.7,3.63,5.64,5.35,2.23,1.98,4.59,2.83,7.26,4.03,3.7,1.68,7.7,3.76,10.02,7.24.5.75,4.63,1.43,5.66,1.92,1.7.81,3.26,1.86,4.61,3.18,3.52,3.43,4.28,7.91,6.79,11.86,1.83,2.87,5.56,4.83,7.73,7.6,1.45,1.85,2.34,3.98,3.07,6.19.79,2.39,2.01,3.47,3.27,5.56,1.09,1.79,2,3.68,2.8,5.62,1.84,4.47,3.03,9.22,3.58,14.02.6,5.15.46,10.43-.68,15.5-.97,4.32-3.33,8.03-4.72,12.17Z"/>
          <path class="cls-6" d="M360.21,57.37s3.17,4.72,10.54,10.86c8.95,6.61,19.77,12.19,26.57,32.02,3.17,9.54,6.81,24.94,26.48,37.41,2.1,1.33,4.05,3.11,5.56,5.1,1.15,1.52,2.1,3.29,2.27,5.23.18,2.01-.59,3.98-1.92,5.46-1.73,1.92-4.43,2.64-5.98,4.74-1.02,1.38-1.57,3.07-1.57,4.79-.19,2.83,2.61,6.56,3.17,7.42.54.82,1.12,2.29-3.2,6.27-.28.26-.28.7,0,.97,2.46,2.32,3.74,4.73-.79,7.69-.74.48-1.15,1.36-1.03,2.24.75,5.47,3.57,21.11-5.7,24.63-10.44,3.97-31.5,4.53-44.3,20.78-1.81,2.3-3.09,5.39-4.68,7.89-3.52,5.53-5.69,11.46-5.95,18.12-.11,2.87.19,5.93,1.92,8.2,1.16,1.53,2.85,2.55,4.59,3.31,5,2.17,10.51,2.41,15.82,3.21,15.74,2.37,28.24,16.35,37.41,28.67,0,0,29.09,34.23,37.48,60.3,14.27,9.07,29.37,62.34,3.36,89.26-74.97,13.04-191.89,28.9-191.89,28.9,0,0-20.89-46.85-25.73-68.77-6.34-24.18-19.77-38.16-10.07-91.81,10.07-25.32,17.34-36.08,24.43-46.85,7.09-10.77-.44-4.3-.44-4.3,0,0-13.05,9.43-23,0,0,0-11.69-7.67-13.43-1.12-1.74,6.55-6.22,10.96-10.32,4.28-4.1-6.68-3.73,11.34-7.58,4.16s-.37-12.09-6.22-8.94c-5.84,3.15-12.68,4.41-14.05-2.27-1.37-6.68-6.84-6.17-9.82-6.17s-18.52-5.79-15.29-17.63c3.23-11.84-1.49-12.59-2.36-15.49s-.37-8.56-2.24-12.97-2.24-2.9-4.1-8.31-2.86-7.43-3.61-10.2c-.75-2.77-.12-8.94,5.97-10.45-2.36-10.33-2.36-14.11,1.49-17.13-4.23-11.96.87-12.72,5.72-14.36-2.36-10.96.75-20.4,10.19-23.3,1.49-10.71,4.97-17.63,25.36-17,15.17-5.79,17.65,5.42,17.65,9.32,8.08-1.76,15.54.13,19.77,7.93,3.11-9.45.87-16.37,5.47-22.67,6.46-11.46,11.81-36.4,44.13-52.14,32.32-15.74,67.2-13.79,79.91,2.74Z"/>
          <path class="cls-2" d="M370.32,367.85c7.17-13.87,16.59-26.8,21.89-41.54,3.25-9.02,5.07-18.66,7.86-27.84,4.72-15.52,10.25-35.82,23.35-46.58,18.19-14.95,30.56-12.85,55.18-11.29,4.64,0,9.29.07,13.93-.16,2.87-.14,5.95-.43,7.81-2.91,3.31-4.41.75-11.48-1.35-15.84-1.06-2.19-2.31-4.85-3.89-6.77-2.81-3.4-7.13-4.48-11.38-3.7-4.14.76-8.55.53-12.7.05-4.32-.5-8.75-1.39-12.73-3.29-3.2-1.53-6.37-4.03-6.9-7.77-.12-.84-.09-1.71.06-2.54.41-2.24,1.56-4.18,2.81-6.05,1.71-2.58,2.01-6.12-.93-7.96-4.02-2.52-2.1-5.4,1.02-8.47-.05.05-2.01-2.76-2.17-3.06-.53-.98-.89-2.07-.78-3.2.14-1.41.96-2.64,1.92-3.65.91-.96,2.02-1.73,2.96-2.67-.09.09-3.85-4.4-4.17-4.81-2.7-3.49-5.63-8.39-1.13-11.82,1.7-1.3,3.71-2.15,5.47-3.38,1.91-1.34,3.77-2.75,5.56-4.24,1.75-1.45,3.47-2.98,4.96-4.7.96-1.1,2.22-2.54,2.3-4.08,0-5.67-1.89-5.4-1.65-9.73.24-4.32-2.46-4.14-4.38-4.2-2.52-.08-2.69-4-2.52-5.74.17-1.75.69-3.44.82-5.21.16-2.04.21-4.3-.34-6.28-.58-2.1.07-4.91.57-7.04.45-1.96,1.11-3.87,1.97-5.68,2.18-4.6,5.69-8.44,10.11-10.99,4.02-2.32,8.58-3.54,13.17-4.03,25.82-2.76,16.33-5.52,29.3-6.6,5.52-.46,11.05-.72,16.59-.55,8.31.25,16.61,1.38,24.63,3.61,9.67,2.69,18.87,7.01,26.94,12.99,4.92,3.65,9.62,7.73,13.35,12.61s6.34,11.16,8.82,16.99c3.28,7.7,6.09,15.84,11.5,22.37,9.55,2.88,11.35,9.73,7.02,17.47-1.44,6.12-6.66,13.51-4.5,21.07,2.16,7.57,4.86,7.93,4.5,20.89-.36,12.97-8.11,29.72-2.7,35.66,5.4,5.94,10.45,11.53,10.27,18.19-.18,6.66-9.55,10.63-16.21,11.17,0,0,25.4,14.41,35.3,23.78,4.93,4.66,10.26,8.81,14.82,13.88,9.06,10.07,14.55,22.51,22.94,32.93,4.43,5.5,11.3,9.04,16.86,13.29,5.31,4.06,10.77,7.9,16.01,12.06,11.97,9.5,23.22,20.14,32.94,31.96,22.52,27.38,25.04,42.15,25.04,42.15l-69.17,2.16s-5.76-15.13-25.76-29.63c-3.25-2.36-6.13-5.62-9.11-8.34-2.19-2-4.38-3.99-6.55-6.01-3.16-2.96-6.22-6.02-9.02-9.32-2.59-3.06-5.26-6.28-8.05-9.25s-6.18-5.71-9.26-8.6c-1.84-1.72-3.43-3.69-5.27-5.41-2.17-2.03-4-2.7-6.86-3.32-7.93-1.71-26.93,53.95-29.45,96.82l-161.03,15.49-5.28-104.83s-29.12,59.44-34.88,89.34l-57.82-2.34s6.84-17.65,11.17-30.26c4.96-14.47,8.42-29.57,15.27-43.33.32-.64.65-1.29.98-1.92Z"/>
          <path class="cls-6" d="M636.25,107.12c.32.96.59,1.94.77,2.96,1.09,5.99,1.94,12.01,2.89,18.02.39,2.45.75,4.91,1.16,7.37.34,2.08.54,5.74,1.87,7.45,2.76,3.58,2.25,3.2,5.92,5.08,3.67,1.88,16.92,15.2,7.19,17.16,0,0,4.03.74,6.49-2.07l-1.13,26.97s.12,13.43,13.37,5.04c1.64-1.04,4.02-2.4,5.68-.61,1.4,1.51,1.16,3.74,1.5,5.62.33,1.79,1.21,3.61,2.79,4.61.43.27.77.5,1.1.88,1.53,1.74,3.68,1.88,5.78,1.05,0,0-3.11,6.45.23,9.35,3.34,2.9,7.18,6.54,7.71,10.35s2.13,14.09,14.72,14.72c5.82-.86,11.66-2.09,17.18-4.15,1.71-.64,3.41-1.3,5.01-2.18.82-.45,1.53-1.09,2.24-1.7.54-.45,1.06-1.11,1.73-1.37.54-.22.71.31.98.72.92,1.39,1.71,2.91,2.25,4.5.49,1.47.87,2.98,1.15,4.5.79,4.19.92,8.49.57,12.73-1.15,14.01-7.32,27.25-14.96,38.86-.74,1.12-1.49,2.23-2.26,3.32-29.02,41.33-39.05,54.17-39.05,54.17,0,0-13.19,11.61-20.05,28.67-6.86,17.06-21.28,41.51-13.54,73.34h243.77s-3.05-16.77-3.05-16.77c0,0,1.17-10.94-4.3-15.48-1.95-11.33,2.97-16.49-3.44-21.65-6.41-5.16-.55-5.94-1.8-14.23-1.25-8.29,2.66-9.3-2.35-16.96-5-7.66,1.41-6.18-1.95-14.38-3.36-8.21,2.66-8.29.86-16.42s-4.3-11.73-4.53-22.67-3.44-19.54-5.16-25.01c-1.72-5.47-3.83-11.78-9.28-21.28-3.82-15.46-7.37-33.26-17.26-46.17-.33-.43-.67-.86-.88-1.35-1.02-2.38-.58-6.35-.7-8.91-.13-3.02-.22-6.03-.26-9.05-.07-4.97,0-9.93-.03-14.9-.04-8.74-.7-17.33-3.1-25.77-1.1-3.88-2.66-7.55-3.98-11.34-3.61-10.39-6.02-21.04-8.39-31.76-1.95-8.81-4.19-17.68-10.06-24.8-3.38-4.1-5.03-9.91-6.96-14.85-1.1-2.82-2.08-5.67-3.11-8.51-1.68-4.63-4.43-8.51-7.26-12.52-6.71-9.46-11.77-19.96-18.94-29.09-5.17-6.58-11.17-12.54-18.14-17.22-13.79-9.27-30.34-12.41-46.75-11.11-6.46.51-14.12,1.01-20.28,3.23-2.77,1-5.23,2.59-7.52,4.41-2.02,1.6-3.66,3.6-5.58,5.3-2.21,1.96-4.55,2.8-7.18,3.99-3.66,1.66-7.62,3.72-9.91,7.17-.5.74-4.59,1.41-5.6,1.9-1.68.8-3.23,1.84-4.57,3.14-3.49,3.39-4.23,7.83-6.72,11.74-1.81,2.84-5.5,4.78-7.65,7.52-1.43,1.83-2.32,3.94-3.04,6.13-.78,2.36-1.99,3.44-3.24,5.5-1.07,1.77-1.98,3.65-2.77,5.56-1.82,4.43-2.99,9.13-3.55,13.88-.59,5.1-.45,10.32.68,15.34.96,4.28,3.3,7.95,4.67,12.04Z"/>
          <path class="cls-6" d="M969.13,539.74s-32.6-60.37-4.31-135.58c-6.55-13.45-2.76-24.61,1.61-32.89,1.84-9.2,23.46-28.75,31.28-30.36-10.35-4.83-29.21,8.28-48.07-28.06-12.65-24.84-2.99-33.81-2.99-33.81,0,0-9.66-.92-15.75-18.74-23.8,6.78-36.22-1.95-46.8-24.03-2.41-6.09-7.36-15.87,5.75-18.4.51-2.76.57-5.68,1.55-8.33.23-.61.55-1.25,1.14-1.55.58-.29,1.27-.17,1.9-.04-.05,0-.4-3.5-.45-3.83-.2-1.23-.43-2.46-.57-3.7-.22-1.93-.34-4.28,1.11-5.79,1.5-1.55,4.01-1.67,6.02-1.61-1.03-9.89,1.38-16.79,10.46-15.29,8.39-3.56,11.38-8.51,17.02-1.72,9.2.23,10.35,2.07,13.91,7.93,4.25-4.48,7.93-6.21,10.12-4.94.46-4.48,2.07-5.4,4.71-5.4,1.26-5.63,8.16-11.27,16.79-11.27,2.41-11.5,6.09-17.36,10.69-19.66,4.6-2.3,7.59-9.31,10.46-9.77s13.34-5.06,19.66-2.53c6.32,2.53,7.17-20.47,24.86-8.51,17.69,11.96,12.63-13.34,31.72-1.72,19.09,11.61,17.94,4.48,27.14,9.31,9.2,4.83,20.58,9.54,27.02,17.82,6.44,8.28-2.99,12.3-2.99,12.3.32-.14,1.86,1.34,2.06,1.51,1.97,1.68,3.67,3.68,5.21,5.76,2.71,3.67,4.92,7.69,6.82,11.83,2.91,6.33,5.12,12.98,6.9,19.71.44,1.68.86,3.36,1.26,5.05.38,1.62.93,3.28,1.18,4.96.27,1.82-.03,3.52-.31,5.32-.26,1.7-2.24,6.32,6.99,12.65,9.23,6.32,16.7,16.82,19.41,22.63,2.7,5.81-2.24,10-10.64,13.4,0,0-3.25,1.72,1.35,6.76,4.6,5.03-4,11.01-4,11.01,0,0,5.52,7.93.98,12.91-1.34,1.46-2.44,3.49-1.65,5.48.55,1.38,1.69,2.41,2.32,3.74.89,1.87,1.15,3.99,1.19,6.04.07,3.6-.79,7.33-2.66,10.43-1.29,2.14-3.07,3.96-5.1,5.4-1.43,1.01-2.99,2.01-4.65,2.66-1.79.71-3.62.81-5.52.97-1.79.15-3.57.32-5.36.54-4.84.59-9.67,1.44-14.38,2.73-4.69,1.29-9.49,3.01-13.4,5.98-3.18,2.41-5.53,5.83-5.41,9.95,0,0-7.59,19.32-7.93,26.3,0,0,3.02,3.97,7.5,6.04s18.28,29.15,18.28,29.15c0,0,9.92,11.64,3.79,13.11-6.12,1.47,9.75,2.67,9.75,2.67,0,0,10.69,3.71,14.32,12.42,0,0,5.78.95,9.06,4.05,5.43,1.03,6.9,1.72,10,5.26,5.86.43,7.93,1.12,11.38,5.61,4.66,2.16,6.81,3.02,8.11,4.57l-219.84,83.57Z"/>
          <path class="cls-1" d="M96.4,515.88s-27.43-60.21,4.7-130.73c-5.43-13.37-1.05-23.86,3.7-31.54,2.37-8.73,24.45-26.13,32.08-27.17-9.64-5.32-28.64,6.06-44.42-30.13-10.55-24.72-.67-32.72-.67-32.72,0,0-9.23-1.52-13.93-19.06-23.35,4.97-34.72-4.25-43.46-26.18-1.93-6.02-6.05-15.75,6.73-17.33.67-2.62.92-5.43,2.03-7.91.26-.58.61-1.17,1.19-1.41.58-.24,1.23-.08,1.83.09-.04-.01-.15-3.39-.18-3.71-.11-1.2-.25-2.4-.31-3.6-.09-1.87-.05-4.14,1.45-5.49s3.96-1.35,5.89-1.15c-.35-9.58,2.42-16.06,11.07-14.03,8.31-2.88,11.51-7.44,16.49-.55,8.84.82,9.82,2.67,12.87,8.54,4.39-4.04,8.04-5.46,10.06-4.1.74-4.28,2.34-5.06,4.89-4.89,1.58-5.34,8.59-10.31,16.89-9.75,3.07-10.91,7-16.31,11.57-18.22,4.58-1.91,7.91-8.47,10.71-8.72s13.16-4,19.08-1.15c5.92,2.85,8.23-19.23,24.47-6.56,16.24,12.66,13.02-12.01,30.63.41,17.61,12.42,16.97,5.49,25.5,10.73,8.54,5.25,19.18,10.53,24.84,18.91,5.66,8.39-3.68,11.64-3.68,11.64.32-.11,1.7,1.41,1.88,1.59,1.78,1.75,3.29,3.78,4.63,5.88,2.37,3.71,4.23,7.72,5.79,11.82,2.39,6.28,4.08,12.82,5.35,19.42.32,1.64.61,3.29.88,4.94.26,1.58.68,3.22.81,4.85.14,1.77-.26,3.38-.64,5.1-.36,1.62-2.57,5.94,5.9,12.63,8.47,6.69,14.97,17.27,17.19,23.03,2.22,5.76-2.81,9.48-11.11,12.2,0,0-3.24,1.45.86,6.59,4.1,5.14-4.56,10.33-4.56,10.33,0,0,4.79,7.99.1,12.48-1.38,1.32-2.58,3.19-1.94,5.17.44,1.37,1.47,2.43,1.99,3.75.73,1.86.85,3.91.75,5.89-.17,3.47-1.24,7-3.24,9.86-1.38,1.98-3.21,3.61-5.26,4.86-1.44.88-3.01,1.73-4.65,2.26-1.77.56-3.53.54-5.37.57-1.73.03-3.46.07-5.19.17-4.7.25-9.4.75-14.01,1.69-4.59.94-9.33,2.28-13.29,4.88-3.22,2.11-5.7,5.25-5.86,9.22,0,0-8.56,18.09-9.35,24.79,0,0,2.65,4.01,6.83,6.3s15.69,29.24,15.69,29.24c0,0,8.78,11.85,2.8,12.86s9.2,3.21,9.2,3.21c0,0,10.05,4.27,12.96,12.88,0,0,5.5,1.29,8.45,4.49,5.16,1.35,6.53,2.11,9.28,5.71,5.61.8,7.56,1.6,10.59,6.14,4.34,2.38,6.36,3.35,7.5,4.93l-216.97,66.06Z"/>
          <path class="cls-1" d="M1059.85,44.42s1.46,6.75,7.05,17.02c7.18,11.52,16.94,22.73,15.7,48.11-.72,12.15-3.56,31.09,13.15,54.1,1.78,2.46,3.2,5.35,4.01,8.27.62,2.23.89,4.66.22,6.91-.7,2.34-2.47,4.19-4.65,5.24-2.83,1.36-6.23.92-8.94,2.57-1.78,1.08-3.17,2.73-3.95,4.66-1.49,3.09,0,8.56.24,9.77.24,1.16.23,3.08-6.47,5.57-.44.16-.64.66-.44,1.08,1.74,3.72,2.11,7.02-4.38,8.26-1.06.2-1.92,1-2.18,2.05-1.63,6.48-5.49,25.31-17.63,25.01-13.66-.34-37.85-9.36-59.75,2.99-3.1,1.75-5.95,4.63-8.89,6.7-6.5,4.58-11.66,10.24-14.96,17.59-1.42,3.16-2.46,6.74-1.54,10.08.62,2.24,2.08,4.17,3.72,5.82,4.7,4.73,10.85,7.52,16.52,10.85,16.82,9.88,24.69,31.29,29.53,49.31,0,0,17.56,51.73,15.29,84.82,12.1,16.71,5.15,83.4-36.6,101.66-91.08-19.77-231.13-55.6-231.13-55.6,0,0-2.52-62.13,1.89-88.93,3.74-30.03-5.18-51.87,30.13-107.6,22.9-23.78,36.04-32.52,48.97-41.34,12.93-8.83,1.45-5.02,1.45-5.02,0,0-19.1,4.59-26.13-10.55,0,0-9.81-13.96-14.75-7.41s-12.02,9.44-13.66.07c-1.64-9.37-9.37,11-10.5,1.18s5.05-13.73-3.01-12.88c-8.07.85-16.4-.87-14.94-8.99,1.47-8.11-4.98-10.06-8.37-11.43s-18.43-14.99-9.39-26.79c9.03-11.8,4.01-14.81,4.33-18.46s3.45-9.78,3.33-15.58c-.12-5.8-1.23-4.28-.9-11.21.33-6.93.12-9.65.52-13.1s3.91-10.09,11.51-8.99c1.99-12.67,3.7-16.91,9.45-18.53.61-15.36,6.75-13.87,13-13.48,2.28-13.37,10.09-22.54,22.13-21.46,6.54-11.32,13.63-17.5,36.52-7.44,19.86.46,17.61,14.17,15.84,18.55,9.98,1.73,17.6,7.27,18.87,17.97,7.81-9.17,8.4-17.97,16.48-22.92,12.54-9.89,29.9-35.41,73.76-38.24,43.86-2.83,82.6,15.35,89.56,39.73Z"/>
        </g>
        <g class="cls-5">
          <g>
            <path class="cls-3" d="M72.66,121.19h59.66c34.78,0,50.67,23.85,50.67,62.9v15.21c0,42.85-14.39,65.66-51.57,65.66h-11.09v86.4h-47.67V121.19ZM120.33,220.72h3.9c7.8,0,10.49-4.49,10.49-18.32v-24.88c0-12.44-4.2-15.55-10.79-15.55h-3.6v58.75Z"/>
            <path class="cls-3" d="M218.67,351.35v-61.52c0-4.84-.9-13.48-1.8-18.66l-30.88-149.99h50.67c1.5,27.65,3.9,60.48,5.4,94.69h3c1.5-25.57,4.8-64.63,6.9-94.69h47.07l-31.48,154.14c-.9,4.84-1.5,6.91-1.5,11.06v64.97h-47.37Z"/>
            <path class="cls-3" d="M306.82,121.19h47.67v183.51h44.67l-4.8,46.66h-87.55V121.19Z"/>
            <path class="cls-3" d="M456.73,302.97l-2.4,48.38h-48.57l21.29-230.17h75.85l20.99,230.17h-49.17l-2.4-48.38h-15.59ZM470.22,257.35c-.9-17.63-4.5-77.76-5.4-90.2h-2.1c-.3,10.02-3.3,67.74-4.2,90.2h11.69Z"/>
            <path class="cls-3" d="M537.68,121.19h52.17c39.28,0,58.17,17.62,58.17,71.19v84.67c0,48.04-10.79,74.3-51.27,74.3h-59.06V121.19ZM585.35,310.23h4.2c7.5,0,10.19-4.84,10.19-15.21v-117.85c0-12.1-3.9-14.86-10.49-14.86h-3.9v147.92Z"/>
            <path class="cls-3" d="M713.67,121.19v230.17h-47.37V121.19h47.37Z"/>
            <path class="cls-3" d="M817.41,252.86h-36.58v53.22h44.07l-5.4,45.27h-86.35V121.19h86.05v45.27h-38.38v41.12h36.58v45.27Z"/>
            <path class="cls-3" d="M880.07,276.02v18.66c0,13.82,2.1,17.28,6.6,17.28,4.2,0,5.7-4.84,5.7-13.48,0-17.28-1.8-22.46-20.09-42.16-24.29-26.27-35.68-39.74-35.68-73.27,0-36.98,11.99-65.32,50.67-65.32,42.58,0,50.07,30.07,50.07,61.17v14.17h-41.97v-17.62c0-11.75-1.8-14.86-6.3-14.86-3.6,0-5.7,3.46-5.7,13.82,0,12.1,1.8,16.93,16.79,32.49,27.28,27.99,40.18,42.51,40.18,79.14,0,42.16-11.09,68.77-53.37,68.77-37.78,0-52.17-23.85-52.17-64.97v-13.82h45.27Z"/>
            <path class="cls-3" d="M1036.87,276.02v18.66c0,13.82,2.1,17.28,6.6,17.28,4.2,0,5.7-4.84,5.7-13.48,0-17.28-1.8-22.46-20.09-42.16-24.29-26.27-35.68-39.74-35.68-73.27,0-36.98,11.99-65.32,50.67-65.32,42.57,0,50.07,30.07,50.07,61.17v14.17h-41.97v-17.62c0-11.75-1.8-14.86-6.3-14.86-3.6,0-5.7,3.46-5.7,13.82,0,12.1,1.8,16.93,16.79,32.49,27.28,27.99,40.18,42.51,40.18,79.14,0,42.16-11.09,68.77-53.37,68.77-37.78,0-52.17-23.85-52.17-64.97v-13.82h45.27Z"/>
            <path class="cls-3" d="M1111.83,121.19h59.66c34.78,0,50.67,23.85,50.67,62.9v15.21c0,42.85-14.39,65.66-51.57,65.66h-11.09v86.4h-47.67V121.19ZM1159.5,220.72h3.9c7.8,0,10.49-4.49,10.49-18.32v-24.88c0-12.44-4.2-15.55-10.79-15.55h-3.6v58.75Z"/>
          </g>
        </g>
        <g class="cls-5">
          <g>
            <path class="cls-3" d="M844.39,444.35v-70.69c-1.62.31-5.14.35-7.2.19v-10.02c4.61-.46,8.11-2.95,10.07-5.82h8.63v86.34h-11.5Z"/>
            <path class="cls-3" d="M922.58,379.75v41.94c0,12.6-3.39,23.68-17.96,23.68-13.46,0-17.05-10.93-17.05-23.54v-41.96c0-12.98,5.51-22.49,17.69-22.49s17.32,10.74,17.32,22.36ZM899.18,378.86v44.97c0,5.6,1.65,9.57,5.86,9.57s5.84-3.75,5.84-9.94v-44.81c0-5.96-1.62-9.39-5.85-9.39s-5.85,3.81-5.85,9.6Z"/>
            <path class="cls-3" d="M959.63,413.86l-4.22,30.49h-5.51l12.41-85.93h7.89l12.95,85.93h-5.75l-4.46-30.49h-13.31ZM972.15,408.07c-3.23-21.91-5.26-37.06-5.87-44.09h-.26c-.24,6.34-3.21,26.31-5.57,44.09h11.71Z"/>
            <path class="cls-3" d="M1012.48,444.35v-85.93h6.81c4.74,18.51,16.12,65.38,17.64,74.09h.21c-.37-12.23-.56-24.33-.56-38.26v-35.83h5.31v85.93h-6.62c-5.08-20.17-16.29-67.58-18.16-76.65h-.11c.46,10.31.82,25.48.82,41.02v35.63h-5.33Z"/>
            <path class="cls-3" d="M1103.62,378.36v45.5c0,14.15-4.94,21.57-15,21.57-11.15,0-14.52-8.82-14.52-21.52v-45.45c0-13.31,4.78-21.09,14.92-21.09,10.82,0,14.59,9.47,14.59,21ZM1079.71,378.54v45.54c0,11.4,3.6,15.59,9.19,15.59s9.12-4.15,9.12-16.15v-44.89c0-10.71-3.34-15.5-9.21-15.5-6.23,0-9.1,4.62-9.1,15.41Z"/>
            <path class="cls-3" d="M1138.16,420.91v4.75c0,9.26,2.95,14.12,8.77,14.12s8.69-4.15,8.69-16.21c0-10.62-2.05-15.25-9.8-22.15-7.94-7.12-11.82-11.23-11.82-23.85,0-10.58,2.73-20.35,13.21-20.24,9.26.11,12.75,6.69,12.75,18.7v3.57h-5.45v-3.4c0-7.93-1.44-13.22-7.43-13.22s-7.61,6.15-7.61,13.61c0,9.31,1.64,12.38,8.68,18.64,9.79,8.68,12.97,13.36,12.97,27.55,0,12-2.5,22.63-14.16,22.63-10.82,0-14.26-8.37-14.26-19.69v-4.82h5.47Z"/>
          </g>
        </g>
      </g>
    </g>
  </g>
</svg>