<svg width="633" height="409" viewBox="0 0 633 409" fill="none" xmlns="http://www.w3.org/2000/svg">
<path d="M137.103 0.0381878C136.442 0.135479 135.479 0.378709 134.998 0.524646C134.517 0.670584 133.734 0.865167 133.253 0.962459C132.832 1.0111 131.689 1.6435 130.787 2.37319C129.283 3.54069 126.215 4.22173 122.666 4.17308C119.056 4.12444 113.883 3.49204 111.236 2.76235C107.687 1.83808 99.5056 1.78944 94.6931 2.71371C93.8509 2.90829 90.9032 3.29746 88.0759 3.63798C85.2485 3.92985 80.3759 4.95142 77.2478 5.82704C74.1196 6.70267 71.4126 7.33506 71.2923 7.18913C71.1118 7.04319 71.0517 6.21621 71.172 5.29194C71.4728 2.2759 67.7431 0.573292 65.2165 2.61642C63.5923 3.92985 63.7126 5.48652 65.6376 7.09183C66.5399 7.82152 66.9009 8.45392 66.4798 8.45392C66.1188 8.45392 65.036 8.89173 64.1337 9.42683C63.2313 9.96194 59.7423 10.9348 56.3134 11.5672C49.5157 12.8807 47.8915 13.7076 41.3946 18.9127C39.4095 20.5181 36.522 22.8044 34.9579 23.9719C33.0931 25.3826 32.0102 26.6474 31.7696 27.7663C31.2282 30.004 31.8298 34.2362 32.672 34.674C33.7548 35.2577 33.9954 40.025 32.9727 41.5817C31.8899 43.333 29.1829 45.522 28.5813 45.2301C28.2806 45.0842 27.1977 45.6193 26.1149 46.3976C24.972 47.2246 23.7688 47.857 23.4079 47.857C22.0845 47.857 20.761 51.2136 20.4602 55.4458C19.7985 63.521 19.4977 64.7371 17.8134 66.7802C16.1892 68.7261 12.279 71.3043 10.1134 71.8881C8.85009 72.2286 6.02275 76.7526 5.1204 79.866C3.73681 85.0711 6.32353 90.5194 12.5196 95.5299C16.6102 98.7892 17.1517 99.6162 15.5876 100.103C14.4446 100.443 14.4446 102.048 15.5876 102.827C16.3095 103.313 16.7907 103.265 17.9337 102.681C19.2571 101.951 19.4376 101.951 20.2798 102.73C20.8212 103.167 21.4829 104.14 21.8438 104.87C22.5657 106.475 22.2649 112.945 21.3626 113.675C21.0017 113.967 20.7009 114.696 20.7009 115.329C20.7009 115.961 20.4602 116.448 20.0993 116.448C19.7985 116.448 19.4977 116.837 19.4977 117.323C19.4977 117.81 18.9563 119.123 18.2946 120.242C17.6329 121.312 17.0915 122.577 17.0915 123.015C17.0915 123.404 16.7907 124.134 16.4298 124.62C15.9485 125.204 15.8884 126.615 16.129 128.755C16.5501 131.625 16.8509 132.258 18.8962 133.96C20.0993 134.982 21.3024 135.76 21.4227 135.614C21.6032 135.517 22.7462 136.149 24.0095 137.122C26.6563 139.068 26.8368 139.068 28.7017 138.144C30.2056 137.365 33.2134 137.414 38.447 138.29C42.0563 138.922 45.1845 140.138 44.5227 140.625C44.3423 140.819 44.4626 141.208 44.8837 141.598C45.9063 142.619 45.6657 147.24 44.4024 151.716C42.5376 158.088 43.079 162.467 46.0868 166.31C46.5079 166.845 48.6735 169.374 50.9595 172.001C53.1852 174.579 55.1704 177.109 55.411 177.595C55.5915 178.082 56.2532 179.347 56.7946 180.417C57.3962 181.487 58.0579 184.114 58.2985 186.254C58.9603 192.335 60.2837 197.2 62.0282 200.118C62.9306 201.578 63.7728 203.183 63.8329 203.67C63.9532 204.156 64.4946 205.129 65.036 205.81C66.4798 207.61 68.2243 211.745 67.6228 212.037C67.3821 212.134 67.1415 212.815 67.0813 213.496C66.9009 215.928 66.7806 216.172 65.6978 216.463C65.0962 216.609 64.6149 216.95 64.6149 217.193C64.6149 217.436 64.254 217.631 63.7728 217.631C63.2915 217.631 62.8103 217.971 62.5696 218.361C62.3892 218.75 61.9681 219.09 61.547 219.09C61.186 219.09 60.3438 219.625 59.7423 220.258C59.0806 220.939 58.0579 221.62 57.3962 221.766C56.7345 221.96 56.1931 222.398 56.1931 222.787C56.1931 223.177 55.9524 223.468 55.5915 223.468C55.2907 223.468 54.9899 223.809 54.9899 224.198C54.9899 224.587 54.6892 224.928 54.3282 224.928C53.9673 224.928 53.7868 225.268 54.0274 225.658C54.2079 226.095 53.9673 227.117 53.5462 227.993C51.2001 232.371 50.5985 233.781 50.5985 234.414C50.5985 234.803 50.4181 235.143 50.1774 235.143C49.6962 235.143 48.3727 241.954 48.3727 244.289C48.3727 245.554 48.072 245.991 46.8688 246.332C45.9665 246.624 45.3649 247.159 45.3649 247.743C45.3649 248.813 47.4102 249.98 48.3727 249.494C48.7337 249.299 48.9743 250.418 48.9743 252.364C48.9743 254.164 48.7337 255.575 48.3727 255.575C48.072 255.575 47.7712 256.11 47.7712 256.742C47.7712 258.98 38.2063 264.817 34.5368 264.817C33.8751 264.817 33.3337 265.012 33.3337 265.255C33.3337 265.547 32.3712 265.596 31.2282 265.45C29.8446 265.255 29.1227 265.353 29.1227 265.742C29.1227 266.034 28.5212 266.277 27.8595 266.277C25.9946 266.277 22.6259 268.077 22.1446 269.341C21.9642 269.925 21.2423 270.801 20.6407 271.239C20.0392 271.725 19.4376 273.136 19.2571 274.401C18.7759 277.563 18.054 279.654 16.4899 282.816C15.7079 284.276 14.6852 286.319 14.204 287.292C13.4821 288.848 13.0009 289.14 11.5571 289.14C10.1134 289.14 9.9329 288.994 10.4142 288.265C11.5571 286.513 8.72978 283.303 5.96259 283.303C4.45868 283.303 2.05243 285.541 2.05243 286.951C2.05243 288.703 4.579 290.6 6.86493 290.6C8.06806 290.6 8.60947 290.794 8.36884 291.135C8.12822 291.427 7.58681 291.524 7.16572 291.378C6.74462 291.281 5.78212 291.719 5.00009 292.4C3.91728 293.324 3.79697 293.713 4.33837 293.859C4.93993 294.054 4.87978 294.345 4.09775 295.026C3.07509 295.951 3.07509 295.999 4.27822 296.243C5.06025 296.437 5.48134 296.778 5.24072 297.216C5.06025 297.605 5.30087 297.994 5.78212 298.14C6.26337 298.286 6.62431 298.821 6.68447 299.356C6.74462 299.891 7.22587 300.669 7.70712 301.107C8.24853 301.545 8.54931 302.031 8.36884 302.275C8.18837 302.469 8.48915 302.907 8.9704 303.248C9.45165 303.588 9.87275 304.269 9.87275 304.756C9.87275 305.291 10.1134 305.68 10.354 305.68C10.7751 305.68 12.2188 308.112 12.5798 309.474C12.7001 309.863 13.1813 310.496 13.6024 310.934C14.3845 311.712 17.9337 317.452 19.7985 321.003C23.1071 327.279 24.4306 333.797 22.7462 335.354C22.3251 335.743 21.9642 336.278 21.9642 336.57C21.7837 337.835 21.122 338.759 20.4001 338.759C19.9188 338.759 19.2571 339.148 18.9563 339.586C18.5954 340.073 18.2946 340.267 18.2946 340.024C18.2946 339.781 17.8735 339.878 17.3923 340.218C16.911 340.51 16.2493 340.656 15.9485 340.51C15.6477 340.316 15.2267 340.364 15.1063 340.559C14.9259 340.802 13.7829 340.948 12.4595 340.948C11.1962 340.9 9.99306 341.143 9.75243 341.435C9.33134 341.921 9.03056 342.018 6.86493 342.116C6.20322 342.116 5.66181 342.505 5.66181 342.894C5.66181 343.283 5.1204 343.624 4.39853 343.624C3.73681 343.624 3.37587 343.818 3.55634 344.11C3.73681 344.353 3.49618 344.597 3.01493 344.597C2.47353 344.597 2.05243 344.888 2.05243 345.278C2.05243 345.618 1.6915 346.202 1.21025 346.494C-0.594442 347.71 -0.353816 354.812 1.75165 362.887C2.53368 365.903 11.9181 371.449 24.7313 376.46C27.7392 377.627 30.386 378.843 30.5665 379.086C30.747 379.33 32.0102 379.67 33.3337 379.865C34.6571 380.059 35.9204 380.449 36.161 380.789C36.4618 381.13 37.1837 381.665 37.8454 381.957C38.5071 382.2 39.8907 383.611 40.9735 385.07C42.8384 387.551 43.5001 389.01 46.5681 396.988C47.3501 398.934 48.2524 400.588 48.6134 400.685C48.9142 400.783 48.3727 401.269 47.3501 401.755C44.9438 402.923 43.8009 404.917 44.7032 406.328C46.3274 408.76 49.997 408.566 51.8618 405.89C52.8243 404.528 53.0649 404.48 56.4938 404.48C60.5845 404.577 61.9681 404.382 63.8329 403.555C64.5548 403.215 65.397 403.02 65.6376 403.02C67.1415 403.312 72.1946 401.074 75.9243 398.399C77.7892 397.134 80.0149 395.821 80.9774 395.577C81.8798 395.334 82.7821 394.702 82.9626 394.215C83.3235 393.291 84.647 393.048 92.5876 392.561C94.9337 392.415 98.7235 391.832 101.009 391.248C105.702 390.129 108.409 389.643 115.267 388.913C117.853 388.621 121.583 387.94 123.508 387.405L127.117 386.432L129.223 387.454C130.426 387.989 131.569 388.329 131.87 388.183C132.17 388.037 133.013 388.475 133.795 389.108C134.998 390.129 138.186 391.394 140.111 391.54C140.472 391.588 141.495 391.832 142.397 392.172C144.683 392.951 145.946 392.902 149.255 391.88C154.488 390.226 157.737 388.037 159.842 384.632C160.384 383.805 161.406 382.978 162.068 382.784C162.73 382.638 163.271 382.054 163.271 381.519C163.271 380.935 163.873 380.4 164.775 380.108C166.339 379.622 166.76 378.26 165.617 377.335C165.076 376.897 165.317 376.654 166.52 376.411C168.445 376.022 168.445 375.876 166.7 374.757L165.377 373.881L167.061 373.541C167.963 373.346 168.685 372.908 168.685 372.568C168.685 372.179 169.527 371.79 170.49 371.595C172.054 371.303 172.234 371.157 171.633 370.525C171.031 369.941 171.031 369.746 171.753 369.357C172.234 369.114 173.077 368.92 173.678 368.92C174.28 368.92 174.581 368.676 174.4 368.433C174.159 368.141 174.701 367.947 175.603 367.947C176.927 367.947 177.107 367.801 176.806 366.974C176.506 366.195 176.686 366.001 177.949 366.001C178.792 366.001 179.513 365.806 179.513 365.514C179.513 365.271 180.175 364.931 181.017 364.736C181.859 364.59 182.521 364.152 182.521 363.763C182.521 363.374 183.063 363.082 183.664 363.082C184.266 363.082 184.927 362.741 185.168 362.352C185.349 361.963 186.07 361.623 186.852 361.623C187.574 361.623 188.777 361.136 189.499 360.601C190.522 359.823 192.086 359.434 195.575 359.142C203.095 358.509 207.787 357.731 209.231 357.001C210.013 356.612 210.734 356.369 210.855 356.515C211.757 357.196 215.306 352.818 218.074 347.467C219.818 344.159 222.044 340.51 223.067 339.343C224.931 337.202 230.526 333.408 231.789 333.408C233.293 333.408 237.203 331.414 242.978 327.619C249.355 323.484 250.558 322.901 259.521 319.885C266.74 317.404 270.169 316.966 273.117 318.085C274.981 318.766 275.884 318.814 280.155 318.376C282.862 318.085 286.291 317.744 287.734 317.598C289.178 317.452 290.923 317.063 291.584 316.771C295.013 315.312 318.895 315.604 322.745 317.16C323.888 317.647 326.295 317.744 332.07 317.501C336.341 317.355 340.251 317.258 340.732 317.306C341.213 317.306 344.221 317.404 347.349 317.501C350.538 317.55 353.666 317.89 354.448 318.231C355.17 318.571 356.072 318.717 356.433 318.571C356.734 318.376 357.696 318.62 358.538 319.058C359.561 319.593 360.644 319.739 362.088 319.495C363.291 319.349 364.554 319.398 364.975 319.69C365.336 319.933 366.9 320.274 368.404 320.42C369.908 320.566 373.818 321.052 377.127 321.49C385.188 322.657 390.782 322.074 396.738 319.593C399.144 318.571 401.731 317.841 402.934 317.841C404.077 317.841 405.159 317.695 405.28 317.452C405.46 317.258 406.784 317.209 408.227 317.306C414.544 317.744 425.131 317.404 426.094 316.674C426.635 316.285 427.718 315.896 428.56 315.798C429.763 315.701 430.124 315.36 430.245 314.047C430.365 313.22 430.726 312.49 431.027 312.49C432.35 312.49 433.433 311.08 433.012 309.815C432.711 308.891 432.892 308.599 433.613 308.599C434.155 308.599 434.576 308.258 434.576 307.869C434.576 307.48 434.937 307.139 435.418 307.139C435.899 307.139 436.381 306.653 436.501 306.02C436.621 305.145 437.223 304.853 439.689 304.512C441.374 304.318 445.163 304.075 448.111 304.026C451.179 304.026 454.067 303.734 454.849 303.345C456.834 302.469 459.36 302.615 462.97 303.977C464.714 304.61 467.662 305.437 469.467 305.729C471.271 306.02 473.317 306.653 473.978 307.139C475.903 308.55 478.189 308.793 480.234 307.82C481.257 307.334 482.099 306.75 482.099 306.507C482.099 305.485 488.717 306.507 492.747 308.112C500.447 311.177 513.381 318.766 513.381 320.225C513.381 320.663 513.802 321.636 514.283 322.414C514.764 323.144 515.185 324.263 515.185 324.846C515.185 325.479 515.366 326.063 515.546 326.257C515.787 326.403 515.967 328.106 516.027 329.954C516.088 332.97 516.328 333.554 517.952 335.208C518.975 336.23 520.299 337.154 520.96 337.251C521.562 337.348 523.066 337.932 524.329 338.565C525.592 339.246 526.916 339.635 527.217 339.489C527.517 339.343 528.54 339.537 529.442 339.878C530.345 340.267 532.751 340.754 534.736 340.948C536.721 341.143 538.767 341.483 539.248 341.678C539.729 341.921 541.474 342.164 543.038 342.31C544.602 342.456 546.346 342.845 546.827 343.186C547.309 343.526 548.452 343.867 549.294 343.916C550.136 344.013 551.159 344.451 551.52 344.888C552.242 345.667 552.542 345.667 556.031 344.694C561.024 343.332 565.295 340.705 566.92 338.078C567.581 336.911 568.664 335.597 569.266 335.159C569.867 334.721 570.83 333.505 571.431 332.435C572.033 331.316 572.935 330.489 573.477 330.489C574.018 330.489 575.161 329.419 576.124 328.106C577.026 326.792 578.951 324.7 580.455 323.436C581.959 322.22 583.162 320.906 583.162 320.517C583.162 319.106 584.004 318.279 587.072 316.868C590.561 315.263 592.245 315.069 593.388 316.139C593.93 316.674 594.411 316.723 595.253 316.333C596.156 315.944 596.998 316.187 599.163 317.404C601.51 318.717 602.111 318.814 603.495 318.376C604.397 318.085 606.683 317.89 608.668 317.89C610.593 317.89 612.939 317.647 613.902 317.306C615.887 316.674 616.789 314.825 615.646 313.706C615.045 313.123 615.165 312.928 616.308 312.539C617.09 312.247 618.413 311.615 619.195 311.128L620.579 310.204L617.391 309.28C615.646 308.793 614.142 308.112 614.022 307.869C613.962 307.577 615.466 306.556 617.391 305.534C621.902 303.199 622.624 302.518 621.722 301.594C621.241 301.107 621.181 300.815 621.662 300.572C622.504 300.134 622.444 299.551 621.301 298.675C620.82 298.237 620.519 297.702 620.76 297.459C620.94 297.216 620.519 296.68 619.797 296.243C619.075 295.853 618.654 295.367 618.835 295.124C618.955 294.929 618.835 294.2 618.474 293.518C618.113 292.837 617.812 291.913 617.752 291.427C617.631 290.989 617.511 290.551 617.451 290.454C617.03 290.113 617.15 286.222 617.571 286.222C617.872 286.222 617.932 285.978 617.752 285.735C617.571 285.492 617.692 285.249 617.992 285.249C618.353 285.249 618.654 284.908 618.654 284.519C618.654 283.643 622.985 280.19 625.331 279.168C626.234 278.779 627.076 278.146 627.256 277.709C627.497 277.319 627.978 276.979 628.46 276.979C629.602 276.979 631.588 274.595 632.069 272.698C632.67 270.217 631.407 267.006 627.858 261.899C626.053 259.369 624.369 256.937 624.008 256.548C623.707 256.158 623.045 255.04 622.504 254.115C622.023 253.191 621.12 251.732 620.579 250.953C619.135 248.764 619.316 243.705 620.94 241.127C624.369 235.727 624.91 233.781 624.79 227.117C624.73 223.614 624.67 219.82 624.73 218.604C624.85 211.988 624.67 209.653 624.128 209.215C623.767 208.923 623.467 207.853 623.467 206.832C623.467 205.81 623.166 204.983 622.805 204.983C622.504 204.983 621.782 204.205 621.301 203.232C620.699 202.113 619.797 201.335 618.654 201.043C617.692 200.751 616.488 200.021 615.947 199.34C615.466 198.708 614.744 198.173 614.443 198.173C614.142 198.173 613.12 197.589 612.217 196.908C605.901 192.238 602.592 190.535 597.299 189.368C593.148 188.443 591.704 188.395 585.568 188.687C573.176 189.27 569.206 188.103 566.799 183.19C565.957 181.438 565.957 180.709 566.619 177.158C567.702 171.515 570.288 163.391 571.552 161.591C573.477 158.915 573.777 158.526 576.244 156.483C579.131 154.1 580.816 153.613 582.681 154.586C586.41 156.532 590.982 155.121 590.982 152.008C590.982 151.181 590.381 149.965 589.599 149.235C588.215 147.97 588.215 147.873 589.298 146.997C591.102 145.538 590.802 140.333 588.756 137.317C587.914 136.003 586.831 134.933 586.35 134.933C585.929 134.933 585.568 134.738 585.568 134.495C585.568 133.717 581.417 130.555 580.455 130.555C579.974 130.555 579.552 130.312 579.552 130.02C579.552 129.777 579.312 129.679 578.951 129.825C578.65 129.971 578.349 129.874 578.349 129.533C578.349 129.193 578.169 129.096 577.988 129.241C577.748 129.387 577.026 129.29 576.364 129.047C575.462 128.658 575.041 128.658 574.68 129.144C574.319 129.582 573.958 129.631 573.717 129.339C573.417 129.047 572.875 128.852 572.394 128.852C571.913 128.852 571.251 128.415 570.89 127.879C570.529 127.344 569.807 126.663 569.386 126.371C567.882 125.447 567.04 120.631 567.822 118.102C568.183 116.885 568.785 115.718 569.145 115.572C569.988 115.134 573.657 105.794 573.176 105.21C572.995 104.919 573.236 104.335 573.777 103.897C574.62 103.119 574.56 102.681 573.477 99.1784C572.815 97.038 571.973 95.0435 571.552 94.703C571.131 94.4111 569.326 93.73 567.461 93.1949C564.152 92.2707 564.092 92.2707 563.37 93.1949C563.01 93.73 562.348 93.9733 561.987 93.7787C561.566 93.5841 559.881 93.3409 558.257 93.2922C556.573 93.2436 555.189 93.1463 555.189 93.0976C555.189 93.0003 552.963 92.5625 552.061 92.5139C551.64 92.4652 551.279 92.2707 551.279 92.0274C551.279 91.8328 550.738 91.6383 550.136 91.6383C549.474 91.6383 548.572 91.2491 548.151 90.7626C547.73 90.3248 546.647 89.5465 545.805 89.1087C544.842 88.6222 542.977 86.2386 540.752 82.5415C536.962 76.3148 535.578 74.7582 529.142 69.3585C526.795 67.4126 524.51 65.1749 524.088 64.3966C523.667 63.5696 523.126 62.9372 522.945 62.9372C522.344 62.9372 522.524 56.9051 523.186 56.2241C523.487 55.9322 523.547 55.6403 523.367 55.6403C523.126 55.6403 523.487 55.008 524.149 54.2296C525.292 52.9162 526.735 50.4839 526.856 49.6569C526.916 49.4623 527.217 49.1218 527.577 48.9272C527.938 48.7326 528.179 48.1002 528.119 47.4678C528.059 46.8355 528.239 46.2517 528.48 46.1058C528.781 46.0085 528.841 45.5707 528.66 45.1815C528.42 44.7923 527.999 44.5977 527.638 44.7923C527.277 44.9869 527.156 44.7923 527.397 44.3059C527.638 43.8194 527.999 43.1384 528.239 42.7006C528.54 42.0682 528.36 41.9709 527.337 42.2627C526.374 42.506 526.013 42.36 526.013 41.7763C526.013 41.0952 525.833 41.0952 524.269 41.7763C523.246 42.1655 521.863 42.5546 521.141 42.6519C520.419 42.7492 519.396 43.2843 518.855 43.8194C517.531 45.2301 509.771 50.2893 506.763 51.7487C505.38 52.4297 503.455 53.0135 502.492 53.0621C501.47 53.1594 500.206 53.4026 499.665 53.6459C498.823 53.9864 491.123 54.035 489.017 53.6945C488.055 53.5486 485.709 54.2783 485.709 54.7161C485.709 54.9593 485.408 55.1052 484.987 55.008C484.626 54.9593 484.145 55.3971 483.964 56.0295C483.784 56.6619 483.423 57.1484 483.122 57.0997C482.881 57.0997 482.099 57.5375 481.377 58.024C480.716 58.5591 479.874 58.8996 479.573 58.7537C479.332 58.6077 479.092 58.705 479.092 58.9969C479.092 59.4834 476.324 60.1158 473.377 60.2617C470.73 60.4076 465.496 59.1428 461.045 57.343C454.488 54.6674 452.021 54.2783 449.254 55.689C447.69 56.4673 447.149 57.2457 445.945 60.5049C443.539 67.2181 439.328 69.7476 429.944 69.9909C427.718 70.0395 425.432 70.1855 424.951 70.2827C422.966 70.7206 420.499 73.4934 420.439 75.3419C420.379 75.877 419.898 77.8228 419.296 79.72C418.334 82.6874 417.852 83.3198 415.627 84.7792C412.799 86.5791 412.258 86.725 406.062 86.7737C403.535 86.8223 401.49 86.5791 400.648 86.1413C397.941 84.7306 391.865 83.7576 387.774 84.0495C385.609 84.1955 383.563 84.536 383.202 84.7792C382.42 85.3143 371.592 88.2331 370.449 88.2331C370.028 88.2331 368.404 88.5736 366.9 88.9627C362.749 90.1302 358.538 89.9843 353.064 88.5249C350.417 87.7952 347.59 86.8223 346.748 86.3845C344.702 85.3143 341.394 85.2657 339.228 86.2872C338.266 86.7737 337.243 87.2115 336.942 87.2115C336.702 87.2115 334.717 87.698 332.491 88.2331C330.024 88.8655 326.535 89.2546 323.347 89.3033C318.414 89.4006 317.933 89.3033 313 87.4061C308.609 85.7035 306.864 84.5846 300.668 79.72C293.87 74.3203 288.697 71.207 286.531 71.207C285.99 71.207 285.388 70.7692 285.208 70.2341C285.027 69.5531 284.366 69.2612 283.343 69.2612C282.501 69.2612 281.779 69.018 281.779 68.7747C281.779 68.4828 281.298 68.2883 280.636 68.2883C279.854 68.2883 279.433 67.8505 279.192 66.8289C278.952 66.0019 278.41 65.3695 277.929 65.3695C277.508 65.3695 276.726 64.8831 276.245 64.2993C275.463 63.375 275.523 63.0832 276.425 61.6238C278.29 58.6564 276.305 56.1268 272.154 56.1268C270.349 56.1268 270.289 56.0782 271.192 55.0566C272.515 53.5486 272.395 51.4568 270.891 50.2407C269.808 49.365 269.146 49.2677 267.041 49.4623C264.815 49.7542 264.334 49.6083 263.552 48.684C263.07 48.1002 262.469 46.8355 262.228 45.9112C261.446 42.7979 256.213 37.1549 254.167 37.1549C253.626 37.1549 252.844 36.9117 252.483 36.6198C252.122 36.328 249.896 36.0361 247.55 35.9874C243.76 35.9388 243.159 35.7929 241.474 34.4794C239.97 33.3119 239.068 33.0687 236.782 33.02C234.256 32.9714 231.368 32.1444 226.435 29.9067C223.307 28.496 220.48 27.4258 219.818 27.4258C218.856 27.4258 210.795 23.0476 210.795 22.5125C210.795 21.345 207.727 20.8586 200.568 20.8586C193.409 20.8586 192.868 20.8099 189.92 19.4479C188.236 18.7182 186.07 17.2588 185.108 16.2859C183.363 14.5346 179.513 8.50256 179.513 7.62694C179.513 5.43788 173.859 0.719229 171.152 0.573292C169.227 0.476 169.407 0.476 161.888 0.913813C158.519 1.1084 154.549 1.30298 153.045 1.30298C149.074 1.30298 140.292 0.621938 139.209 0.232771C138.727 0.0381878 137.765 -0.0591039 137.103 0.0381878ZM251.821 57.0024C252.242 57.5375 253.205 58.0726 253.987 58.2672C254.709 58.4618 255.31 58.9483 255.31 59.3374C255.31 59.7266 255.551 60.0185 255.852 60.0185C256.513 60.0185 257.115 63.0832 256.513 63.4237C256.273 63.5696 255.551 64.5425 254.949 65.6127C254.047 67.1208 253.265 67.6559 251.039 68.2883C249.535 68.7261 247.851 69.0666 247.249 68.9693C244.963 68.7261 242.256 67.3153 241.534 66.0019C241.113 65.2722 240.512 64.2993 240.271 63.9101C239.79 63.0345 240.151 60.5049 240.933 59.7266C241.234 59.4347 241.294 59.0456 241.113 58.8996C240.873 58.7537 241.474 58.3159 242.437 57.9753C243.399 57.6348 244.302 57.2457 244.482 57.0511C244.963 56.6133 246.347 56.3214 248.753 56.1755C250.377 56.1268 251.22 56.37 251.821 57.0024ZM607.224 217.145C607.886 217.68 608.427 218.312 608.427 218.604C608.427 218.847 608.849 218.944 609.33 218.798C610.413 218.458 610.533 219.917 609.631 222.593C609.029 224.198 608.608 226.387 608.367 228.82C608.307 229.209 608.006 229.792 607.706 230.133C607.405 230.473 607.285 230.96 607.465 231.203C607.706 231.446 607.585 231.787 607.224 231.981C606.863 232.176 606.743 232.468 606.924 232.663C607.285 233.149 605.66 235.97 604.337 237.187C603.735 237.77 602.592 238.062 601.088 238.062C599.825 238.062 598.802 238.257 598.802 238.549C598.802 239.278 597.96 239.132 596.517 238.16C595.795 237.722 594.592 236.992 593.81 236.554C592.606 235.825 592.426 235.387 592.546 232.663C592.606 230.96 592.967 228.965 593.328 228.236C593.689 227.506 593.81 226.533 593.629 226.144C593.388 225.755 593.509 225.414 593.87 225.414C594.17 225.414 594.592 224.587 594.772 223.566C595.253 221.182 599.524 217.339 602.412 216.707C605.54 216.026 605.901 216.074 607.224 217.145ZM54.0876 279.898C55.411 280.19 57.0954 280.579 57.8774 280.725C58.5993 280.871 59.2009 281.211 59.2009 281.503C59.2009 281.795 59.3813 281.843 59.622 281.698C59.8024 281.503 60.6446 281.941 61.4868 282.67C62.6899 283.741 62.8704 284.276 62.5696 285.832C62.0884 288.167 60.1634 290.356 58.0579 291.038C55.5915 291.865 50.1173 292.059 47.1696 291.475C45.6657 291.183 43.3196 290.259 41.936 289.432C39.4095 287.924 39.3493 287.778 39.1087 283.887C39.0485 283.449 38.8681 282.962 38.6274 282.816C38.086 282.476 38.6274 281.843 40.9735 280.335C42.6579 279.168 43.2595 279.071 47.2899 279.217C49.6962 279.265 52.7642 279.606 54.0876 279.898ZM590.501 286.319C590.681 286.659 591.163 286.951 591.644 287C592.125 287 592.967 287.097 593.569 287.097C594.17 287.146 594.592 287.584 594.592 288.119C594.592 288.654 594.892 289.14 595.313 289.238C595.795 289.384 595.554 289.821 594.712 290.502C593.99 291.086 593.388 291.816 593.388 292.108C593.388 292.691 589.719 294.005 587.974 294.005C587.252 294.005 586.892 293.762 587.072 293.518C587.252 293.227 587.132 293.032 586.771 293.032C586.41 293.032 586.29 292.789 586.47 292.546C586.651 292.254 586.29 292.059 585.628 292.059C584.906 292.059 584.365 291.816 584.365 291.573C584.365 291.281 584.666 291.086 585.027 291.086C585.327 291.086 585.508 290.892 585.267 290.648C585.087 290.356 585.388 289.967 585.989 289.724C586.831 289.335 586.892 289.092 586.23 288.459C585.568 287.827 585.749 287.584 587.493 286.708C589.839 285.589 590.2 285.541 590.501 286.319Z" fill="white"/>
<g clip-path="url(#clip0_40_148)">
<g style="mix-blend-mode:multiply">
<path d="M207.422 219.249C210.025 217.09 213.444 215.078 215.368 212.784C216.548 211.38 217.208 209.88 218.221 208.451C219.934 206.036 221.942 202.876 226.697 201.202C233.299 198.875 237.79 199.202 246.726 199.445C248.411 199.445 250.099 199.456 251.783 199.42C252.825 199.398 253.943 199.353 254.618 198.967C255.819 198.281 254.89 197.18 254.128 196.502C253.743 196.161 253.289 195.747 252.716 195.448C251.696 194.919 250.128 194.751 248.585 194.872C247.082 194.991 245.481 194.955 243.975 194.88C242.407 194.802 240.799 194.664 239.354 194.368C238.193 194.13 237.042 193.741 236.85 193.159C236.806 193.028 236.817 192.893 236.871 192.763C237.02 192.415 237.438 192.113 237.891 191.822C238.512 191.42 238.621 190.869 237.554 190.583C236.094 190.191 236.791 189.743 237.924 189.265C237.906 189.273 237.194 188.835 237.136 188.789C236.944 188.636 236.813 188.467 236.853 188.291C236.904 188.071 237.202 187.88 237.55 187.723C237.88 187.573 238.283 187.453 238.625 187.307C238.592 187.321 237.227 186.622 237.111 186.558C236.131 186.015 235.067 185.253 236.701 184.719C237.318 184.517 238.047 184.384 238.686 184.193C239.38 183.984 240.055 183.765 240.704 183.533C241.34 183.307 241.964 183.069 242.505 182.802C242.853 182.63 243.311 182.406 243.34 182.167C243.34 181.284 242.654 181.326 242.741 180.652C242.828 179.98 241.848 180.008 241.151 179.999C240.236 179.986 240.174 179.376 240.236 179.105C240.298 178.833 240.487 178.57 240.534 178.295C240.592 177.977 240.61 177.625 240.41 177.317C240.2 176.99 240.436 176.553 240.617 176.222C240.781 175.916 241.02 175.619 241.332 175.338C242.124 174.622 243.398 174.024 245.002 173.627C246.461 173.266 248.117 173.076 249.783 173C259.155 172.57 255.71 172.141 260.418 171.973C262.422 171.901 264.429 171.861 266.44 171.887C269.457 171.926 272.47 172.102 275.381 172.449C278.891 172.868 282.23 173.54 285.16 174.471C286.946 175.039 288.652 175.674 290.006 176.433C291.36 177.193 292.307 178.17 293.207 179.077C294.398 180.276 295.418 181.543 297.382 182.559C300.848 183.007 301.501 184.073 299.93 185.278C299.407 186.23 297.512 187.38 298.296 188.557C299.08 189.735 300.06 189.791 299.93 191.808C299.799 193.826 296.986 196.433 298.95 197.358C300.91 198.282 302.743 199.152 302.678 200.189C302.612 201.225 299.211 201.843 296.794 201.927C296.794 201.927 306.013 204.17 309.607 205.628C311.397 206.353 313.331 206.999 314.987 207.788C318.275 209.355 320.268 211.291 323.313 212.913C324.922 213.769 327.415 214.32 329.433 214.981C331.361 215.613 333.343 216.211 335.245 216.858C339.59 218.337 343.674 219.993 347.202 221.832C355.376 226.093 356.291 228.392 356.291 228.392L331.183 228.728C331.183 228.728 329.092 226.373 321.832 224.117C320.653 223.75 319.607 223.242 318.526 222.819C317.731 222.508 316.936 222.198 316.148 221.884C315.001 221.423 313.89 220.947 312.874 220.433C311.934 219.957 310.965 219.456 309.952 218.993C308.939 218.531 307.709 218.105 306.591 217.655C305.923 217.387 305.346 217.081 304.678 216.813C303.89 216.497 303.226 216.393 302.188 216.296C299.309 216.03 292.412 224.693 291.497 231.365L233.045 233.775L231.129 217.46C231.129 217.46 220.559 226.711 218.468 231.365L197.48 231C197.48 231 199.963 228.253 201.534 226.291C203.335 224.039 204.591 221.689 207.077 219.547C207.193 219.448 207.313 219.347 207.433 219.249H207.422Z" fill="#C4161C"/>
</g>
<g style="mix-blend-mode:multiply">
<path d="M203.752 170.929C203.752 170.929 204.903 171.663 207.578 172.619C210.827 173.647 214.755 174.516 217.223 177.602C218.374 179.087 219.695 181.483 226.835 183.424C227.597 183.631 228.305 183.908 228.853 184.218C229.27 184.454 229.615 184.73 229.677 185.032C229.742 185.345 229.463 185.651 228.98 185.882C228.352 186.18 227.372 186.292 226.809 186.619C226.439 186.834 226.24 187.097 226.24 187.365C226.171 187.805 227.187 188.386 227.39 188.519C227.586 188.647 227.797 188.876 226.229 189.495C226.127 189.536 226.127 189.604 226.229 189.646C227.122 190.007 227.586 190.382 225.942 190.843C225.673 190.918 225.524 191.055 225.568 191.192C225.84 192.043 226.864 194.477 223.499 195.025C219.709 195.643 212.065 195.73 207.419 198.259C206.762 198.617 206.297 199.098 205.72 199.487C204.442 200.347 203.654 201.27 203.56 202.307C203.52 202.753 203.629 203.23 204.257 203.583C204.678 203.821 205.291 203.98 205.923 204.098C207.738 204.436 209.738 204.473 211.666 204.598C217.379 204.966 221.916 207.142 225.245 209.06C225.245 209.06 235.804 214.387 238.85 218.444C244.03 219.856 249.511 228.146 240.069 232.336C212.856 234.365 170.415 236.833 170.415 236.833C170.415 236.833 162.833 229.542 161.076 226.131C158.774 222.368 153.899 220.192 157.42 211.842C161.076 207.902 163.715 206.227 166.288 204.551C168.862 202.875 166.129 203.882 166.129 203.882C166.129 203.882 161.392 205.349 157.78 203.882C157.78 203.882 153.536 202.688 152.905 203.707C152.273 204.727 150.647 205.413 149.159 204.374C147.671 203.334 147.805 206.138 146.407 205.021C145.01 203.904 146.273 203.139 144.15 203.63C142.03 204.12 139.547 204.316 139.05 203.276C138.552 202.237 136.567 202.316 135.485 202.316C134.403 202.316 128.762 201.415 129.935 199.572C131.107 197.73 129.394 197.613 129.078 197.162C128.762 196.71 128.944 195.829 128.265 195.143C127.586 194.457 127.452 194.692 126.777 193.85C126.102 193.008 125.739 192.693 125.467 192.262C125.194 191.831 125.423 190.871 127.634 190.636C126.777 189.028 126.777 188.44 128.174 187.97C126.639 186.109 128.49 185.99 130.251 185.735C129.394 184.03 130.523 182.56 133.95 182.109C134.49 180.442 135.754 179.365 143.155 179.463C148.662 178.562 149.562 180.307 149.562 180.914C152.495 180.64 155.203 180.934 156.738 182.148C157.867 180.677 157.054 179.6 158.724 178.62C161.068 176.836 163.01 172.955 174.742 170.505C186.474 168.056 199.135 168.359 203.749 170.932L203.752 170.929Z" fill="#ED1C29"/>
</g>
<g style="mix-blend-mode:multiply">
<path d="M457.714 168.913C457.714 168.913 458.244 169.964 460.273 171.562C462.879 173.355 466.422 175.099 465.972 179.049C465.71 180.94 464.68 183.888 470.745 187.469C471.391 187.852 471.907 188.302 472.201 188.756C472.426 189.103 472.524 189.481 472.281 189.831C472.026 190.196 471.384 190.484 470.593 190.647C469.565 190.859 468.331 190.79 467.348 191.047C466.701 191.215 466.197 191.472 465.914 191.772C465.373 192.253 465.914 193.104 466.001 193.293C466.088 193.473 466.084 193.772 463.652 194.159C463.493 194.184 463.42 194.262 463.493 194.328C464.124 194.907 464.259 195.42 461.903 195.613C461.518 195.644 461.206 195.769 461.111 195.932C460.52 196.941 459.119 199.871 454.712 199.824C449.753 199.772 440.973 198.368 433.023 200.29C431.898 200.562 430.864 201.01 429.796 201.333C427.437 202.045 425.564 202.926 424.366 204.07C423.851 204.562 423.473 205.119 423.807 205.639C424.032 205.987 424.562 206.288 425.157 206.545C426.863 207.281 429.096 207.715 431.154 208.233C437.259 209.771 440.116 213.103 441.873 215.907C441.873 215.907 448.247 223.958 447.423 229.108C451.815 231.708 449.293 242.087 434.138 244.929C401.077 241.852 350.24 236.276 350.24 236.276C350.24 236.276 349.325 226.607 350.926 222.436C352.284 217.762 349.046 214.363 361.863 205.69C370.175 201.989 374.945 200.629 379.639 199.256C384.332 197.882 380.165 198.475 380.165 198.475C380.165 198.475 373.232 199.189 370.68 196.833C370.68 196.833 367.119 194.661 365.326 195.68C363.533 196.699 360.963 197.149 360.367 195.691C359.772 194.233 356.966 197.403 356.556 195.875C356.146 194.346 358.389 193.738 355.464 193.87C352.534 194.002 349.51 193.735 350.04 192.471C350.574 191.209 348.233 190.905 347.002 190.692C345.772 190.479 340.312 188.359 343.594 186.523C346.872 184.686 345.049 184.218 345.166 183.65C345.282 183.082 346.418 182.128 346.374 181.225C346.331 180.322 345.928 180.559 346.048 179.48C346.167 178.402 346.091 177.979 346.236 177.442C346.382 176.905 347.656 175.871 350.414 176.043C351.137 174.071 351.757 173.411 353.845 173.159C354.066 170.768 356.295 171 358.563 171.061C359.391 168.98 362.226 167.553 366.596 167.721C368.97 165.959 371.544 164.997 379.853 166.563C387.062 166.635 386.245 168.768 385.602 169.45C389.225 169.719 391.991 170.581 392.452 172.247C395.287 170.82 395.501 169.45 398.434 168.68C402.986 167.14 409.288 163.169 425.208 162.728C441.129 162.288 455.191 165.117 457.717 168.912L457.714 168.913Z" fill="#C4161C"/>
</g>
<g style="mix-blend-mode:multiply">
<path d="M356.237 190.241C356.237 190.241 357.169 192.575 357.333 194.156C357.496 195.738 355.63 196.889 355.63 196.889C355.63 196.889 354.527 197.68 355.652 198.825C356.777 199.971 358.505 201.222 359.532 202.363C360.175 203.038 361.71 203.994 357.841 204.816C357.841 204.816 355.946 204.844 355.656 205.331C355.365 205.818 356.157 205.824 356.287 206.169C356.414 206.515 356.269 207.078 353.79 207.183C353.79 207.183 356.335 208.074 354.422 208.884C354.422 208.884 351.961 208.94 352.084 209.911C352.207 210.88 353.558 211.707 349.311 212.823C345.067 213.94 336.94 211.712 336.94 211.712C336.94 211.712 333.463 211.011 332.17 212.625C330.878 214.239 330.014 216.525 333.201 217.372C334.867 217.653 338.726 218.013 343.412 217.252C346.792 217.082 350.81 217.963 350.81 217.963C350.81 217.963 356.331 218.499 360.026 219.751C363.721 221.004 363.928 222.131 366.687 226.979C369.446 231.825 369.206 231.943 369.206 231.943L283.163 237.825L277.769 223.32C277.769 223.32 281.163 220.836 286.898 220.231L291.966 218.5C291.966 218.5 299.207 215.556 301.015 211.629C299.585 210.358 299.73 209.8 299.944 209.223L298.529 208.756C298.529 208.756 294.285 210.415 292.989 207.888C289.693 206.562 290.027 206.507 289.65 205.97C288.093 205.027 287.868 204.798 287.857 204.009C285.733 203.074 284.601 202.786 284.383 202.209C284.165 201.631 283.116 201.093 283.737 200.473C283.737 200.473 281.552 199.466 281.976 198.22C280.296 197.422 280.216 197.109 280.125 196.871C276.669 196.164 271.584 194.991 274.339 191.515C273.551 188.535 273.435 188.085 274.568 187.119C274.568 187.119 274.074 184.506 277.511 183.152C278.383 182.202 278.655 180.929 281.599 180.545C282.956 179.904 283.319 179.879 284.8 179.848C284.8 179.848 285.534 178.246 288.082 177.798C289.701 177.574 289.254 176.371 295.719 175.724C299.937 175.183 309.745 173.943 315.723 176.942C317.546 176.878 318.38 177.597 318.38 177.597C318.38 177.597 319.085 177.58 320.148 178.055C321.593 177.834 325.473 179.015 325.353 181.365C330.588 181.51 332.036 181.684 332.036 181.684C332.036 181.684 345.485 181.883 354.538 187.905C356.748 189.556 356.24 190.238 356.24 190.238L356.237 190.241Z" fill="#ED1C29"/>
</g>
<g style="mix-blend-mode:multiply">
<path d="M477.199 199.491C476.894 199.376 475.733 199.053 472.487 199.219C468.451 199.302 462.716 199.538 461.068 198.298C459.42 197.057 460.567 196.173 460.843 195.898C461.119 195.622 460.774 195.022 459.318 194.724C457.863 194.427 458.175 193.335 462.473 193.157C462.905 193.128 463.547 192.919 458.643 192.354C458.643 192.354 456.407 192.153 457.761 191.165C458.472 190.638 459.409 189.671 456.825 189.405C454.244 189.137 453.031 188.208 453.583 187.651C454.157 187.094 461.061 184.973 461.63 183.858C462.204 182.744 459.601 181.63 459.238 180.95C458.658 179.866 459.496 178.791 460.131 177.75C460.77 176.698 460.988 175.608 461.703 174.564C462.073 174.019 462.65 173.506 463.101 172.972C463.58 172.405 463.663 171.853 463.906 171.266C464.128 170.728 464.582 170.214 465.275 169.754C467.253 168.432 470.774 167.628 474.063 167.039C481.355 165.734 489.377 164.952 497.341 165.089C501.447 165.159 505.527 165.517 509.382 166.123C512.093 166.548 514.739 167.1 516.986 167.886C519.349 168.712 521.157 169.834 522.645 170.966C525.578 173.196 527.524 175.658 528.537 178.176C528.773 178.76 528.932 179.334 529.016 179.924C529.041 180.087 529.143 180.26 529.433 180.368C529.589 180.425 529.785 180.459 529.978 180.494C534.773 181.325 539.31 182.546 542.827 184.185C547.332 186.285 547.728 189.257 547.927 191.968C548.138 194.83 547.873 197.703 547.31 200.556C546.929 202.492 546.508 204.47 545.408 206.359L543.691 203.217L544.784 208.432C544.784 208.432 541.354 205.958 541.354 206.359C541.354 206.761 547.325 215.52 547.325 215.52L539.949 210.305L543.379 219.599C538.308 215.923 533.099 212.152 529.371 208.186C527.44 206.132 528.74 203.932 529.615 201.824C530.555 199.56 531.666 197.309 532.776 195.059C533.107 193.946 533.379 192.83 533.546 191.711C533.68 190.817 533.745 189.919 533.684 189.021C533.637 188.34 533.517 187.657 533.223 186.988C533.03 186.554 532.798 186.104 532.326 185.704C532.094 185.503 531.796 185.315 531.422 185.158C530.987 184.976 530.406 184.974 529.829 184.979C529.179 184.984 528.537 185.036 527.901 185.097C527.208 185.162 526.315 185.279 525.89 184.952C525.727 185.04 525.658 185.162 525.575 185.265C525.473 185.394 525.393 185.527 525.328 185.661C525.197 185.925 525.121 186.194 525.023 186.46C524.947 186.667 524.867 186.873 524.751 187.077C524.221 187.976 523.495 188.849 522.507 189.676C520.184 191.616 516.616 193.235 512.761 194.634C512.398 196.841 512.188 199.182 512.188 199.182C512.188 199.182 514.993 199.182 515.516 202.481C517.284 203.351 517.959 203.662 518.74 204.554C521.756 205.58 533.088 212.667 537.869 217.526C545.564 223.365 547.401 224.854 547.401 224.854L547.325 232.27H442.857V221.448C442.857 221.448 451.779 217.235 453.391 214.917C456.04 211.73 463.217 206.692 465.917 205.511C469.246 203.885 472.883 202.624 480.967 201.855C480.967 201.855 479.903 200.279 477.45 199.575C477.359 199.549 477.275 199.521 477.192 199.49L477.199 199.491Z" fill="#ED1C29"/>
</g>
<g style="mix-blend-mode:multiply">
<path d="M147.852 190.015C147.761 190.132 147.685 190.252 147.631 190.376C147.318 191.108 147.079 191.842 146.807 192.575C146.694 192.874 146.592 193.174 146.476 193.473C146.378 193.727 146.324 194.173 145.943 194.382C145.159 194.818 145.304 194.773 144.258 195.001C143.213 195.23 139.441 196.857 142.211 197.095C142.211 197.095 141.064 197.185 140.363 196.843L140.687 200.133C140.687 200.133 140.654 201.77 136.882 200.747C136.418 200.621 135.739 200.455 135.267 200.674C134.868 200.858 134.937 201.13 134.839 201.359C134.744 201.577 134.494 201.799 134.047 201.921C133.928 201.953 133.83 201.981 133.732 202.028C133.296 202.241 132.683 202.257 132.087 202.156C132.087 202.156 132.973 202.943 132.022 203.297C131.071 203.65 129.978 204.093 129.83 204.559C129.681 205.024 129.223 206.277 125.644 206.353C123.985 206.249 122.327 206.098 120.755 205.847C120.268 205.77 119.786 205.689 119.328 205.581C119.092 205.527 118.893 205.449 118.689 205.374C118.537 205.318 118.388 205.239 118.199 205.206C118.047 205.18 117.996 205.243 117.92 205.295C117.659 205.464 117.433 205.65 117.281 205.844C117.143 206.023 117.034 206.207 116.951 206.394C116.726 206.904 116.689 207.429 116.791 207.947C117.121 209.656 118.875 211.271 121.049 212.687C121.259 212.824 121.474 212.958 121.691 213.092C129.949 218.134 132.802 219.7 132.802 219.7C132.802 219.7 136.556 221.116 138.509 223.197C140.461 225.278 144.563 228.261 142.364 232.144H73L73.8675 230.099C73.8675 230.099 73.5336 228.764 75.0908 228.211C75.6462 226.829 74.2451 226.199 76.0709 225.57C77.8931 224.942 76.227 224.845 76.5827 223.835C76.9384 222.825 75.8277 222.701 77.2506 221.765C78.6735 220.83 76.8513 221.012 77.806 220.011C78.7606 219.011 77.051 219.001 77.5628 218.008C78.0746 217.017 78.786 216.578 78.8514 215.243C78.9167 213.907 79.8315 212.858 80.3179 212.191C80.8079 211.523 81.4068 210.753 82.9604 209.595C84.0603 207.687 85.0803 205.488 87.966 203.91C87.9914 203.896 88.0168 203.88 88.0423 203.865C88.4343 203.588 88.2855 203.049 88.3218 202.711C88.3617 202.344 88.3835 201.975 88.398 201.608C88.4198 201.003 88.398 200.396 88.4089 199.79C88.4198 198.724 88.6085 197.677 89.2909 196.646C89.6031 196.173 90.0496 195.725 90.4235 195.263C91.4507 193.996 92.1368 192.697 92.8083 191.389C93.3637 190.314 93.9989 189.232 95.6687 188.364C96.6306 187.863 97.1025 187.155 97.6469 186.552C97.9591 186.208 98.2386 185.861 98.5326 185.514C99.0082 184.949 99.7922 184.476 100.598 183.987C102.507 182.834 103.945 181.552 105.988 180.439C107.459 179.636 109.168 178.909 111.15 178.338C115.074 177.208 119.782 176.825 124.45 176.983C126.287 177.045 128.468 177.107 130.218 177.376C131.006 177.498 131.706 177.692 132.36 177.915C132.933 178.109 133.401 178.354 133.949 178.561C134.577 178.8 135.242 178.901 135.993 179.048C137.035 179.25 138.16 179.502 138.814 179.922C138.955 180.013 140.117 180.095 140.407 180.154C140.886 180.252 141.325 180.378 141.707 180.537C142.697 180.951 142.912 181.493 143.619 181.969C144.135 182.314 145.184 182.553 145.797 182.886C146.204 183.108 146.458 183.367 146.661 183.633C146.883 183.921 147.228 184.053 147.583 184.303C147.888 184.52 148.146 184.749 148.371 184.982C148.886 185.522 149.224 186.096 149.38 186.675C149.547 187.298 149.511 187.934 149.188 188.546C148.912 189.067 148.251 189.515 147.859 190.015H147.852Z" fill="#ED1C29"/>
</g>
<g style="mix-blend-mode:multiply">
<path d="M275.406 186.456C275.29 186.607 275.192 186.761 275.123 186.921C274.724 187.863 274.412 188.81 274.063 189.755C273.922 190.141 273.787 190.527 273.638 190.913C273.511 191.24 273.439 191.816 272.952 192.085C271.943 192.647 272.128 192.589 270.782 192.883C269.435 193.179 264.575 195.274 268.143 195.582C268.143 195.582 266.665 195.699 265.762 195.257L266.179 199.498C266.179 199.498 266.136 201.608 261.275 200.29C260.676 200.126 259.801 199.913 259.192 200.195C258.68 200.433 258.767 200.783 258.64 201.079C258.52 201.361 258.197 201.647 257.616 201.803C257.46 201.845 257.333 201.882 257.21 201.941C256.647 202.215 255.859 202.237 255.09 202.106C255.09 202.106 256.23 203.121 255.003 203.577C253.776 204.033 252.367 204.604 252.175 205.203C251.983 205.802 251.395 207.419 246.777 207.517C244.643 207.382 242.501 207.189 240.476 206.864C239.851 206.764 239.224 206.66 238.639 206.521C238.338 206.45 238.076 206.35 237.815 206.255C237.619 206.184 237.427 206.081 237.184 206.039C236.984 206.005 236.922 206.087 236.824 206.152C236.487 206.372 236.196 206.61 236 206.86C235.819 207.091 235.681 207.329 235.575 207.567C235.285 208.225 235.238 208.902 235.369 209.568C235.793 211.772 238.055 213.855 240.857 215.679C241.126 215.854 241.405 216.029 241.685 216.201C252.327 222.701 256.004 224.719 256.004 224.719C256.004 224.719 260.843 226.545 263.359 229.228C265.874 231.911 271.163 235.755 268.324 240.76H178.92L180.038 238.124C180.038 238.124 179.61 236.402 181.614 235.689C182.329 233.908 180.525 233.097 182.877 232.284C185.229 231.473 183.076 231.351 183.537 230.048C183.995 228.745 182.561 228.585 184.398 227.38C186.231 226.176 183.882 226.409 185.113 225.119C186.343 223.829 184.136 223.816 184.797 222.537C185.458 221.258 186.372 220.693 186.459 218.973C186.547 217.252 187.723 215.901 188.351 215.04C188.982 214.18 189.755 213.187 191.755 211.694C193.157 209.263 194.456 206.464 198.082 204.434C198.202 204.367 198.326 204.299 198.405 204.221C198.779 203.847 198.62 203.223 198.66 202.82C198.71 202.346 198.739 201.873 198.758 201.398C198.783 200.617 198.758 199.837 198.768 199.056C198.783 197.681 199.026 196.331 199.905 195.003C200.307 194.393 200.881 193.816 201.364 193.219C202.689 191.585 203.571 189.911 204.438 188.225C205.153 186.839 205.974 185.446 208.126 184.325C209.368 183.679 209.974 182.766 210.678 181.991C211.081 181.549 211.44 181.099 211.818 180.652C212.431 179.924 213.44 179.314 214.482 178.684C216.943 177.197 218.798 175.545 221.43 174.11C223.328 173.075 225.528 172.138 228.083 171.402C233.14 169.945 239.213 169.452 245.227 169.655C247.598 169.736 250.407 169.816 252.665 170.163C253.678 170.32 254.582 170.571 255.424 170.855C256.164 171.108 256.767 171.42 257.471 171.688C258.28 171.996 259.137 172.128 260.106 172.315C261.449 172.577 262.901 172.9 263.743 173.442C263.925 173.559 265.424 173.665 265.798 173.741C266.415 173.867 266.981 174.03 267.471 174.236C268.749 174.769 269.025 175.467 269.936 176.081C270.6 176.528 271.954 176.833 272.742 177.264C273.268 177.552 273.591 177.884 273.856 178.228C274.143 178.6 274.586 178.768 275.043 179.093C275.439 179.371 275.769 179.666 276.06 179.968C276.728 180.663 277.159 181.402 277.359 182.149C277.577 182.951 277.526 183.773 277.112 184.562C276.76 185.234 275.904 185.811 275.399 186.456H275.406Z" fill="#ED1C29"/>
</g>
<g style="mix-blend-mode:multiply">
<path d="M303.952 178.671C304.068 178.821 304.166 178.973 304.231 179.132C304.627 180.064 304.935 181.001 305.28 181.936C305.422 182.318 305.552 182.7 305.701 183.083C305.825 183.407 305.897 183.977 306.38 184.243C307.382 184.8 307.197 184.741 308.529 185.033C309.861 185.326 314.671 187.399 311.139 187.704C311.139 187.704 312.602 187.819 313.495 187.382L313.084 191.579C313.084 191.579 313.128 193.669 317.938 192.364C318.533 192.202 319.397 191.99 319.999 192.269C320.508 192.504 320.42 192.851 320.544 193.143C320.664 193.422 320.983 193.705 321.557 193.861C321.713 193.903 321.836 193.939 321.956 193.998C322.511 194.268 323.292 194.29 324.054 194.161C324.054 194.161 322.925 195.165 324.137 195.616C325.35 196.068 326.744 196.634 326.936 197.227C327.128 197.82 327.709 199.42 332.279 199.518C334.392 199.384 336.512 199.193 338.515 198.872C339.136 198.772 339.753 198.67 340.334 198.533C340.632 198.463 340.889 198.363 341.147 198.268C341.343 198.198 341.532 198.095 341.775 198.055C341.971 198.021 342.033 198.103 342.131 198.167C342.465 198.383 342.751 198.62 342.947 198.867C343.125 199.096 343.263 199.331 343.365 199.568C343.652 200.22 343.699 200.889 343.572 201.549C343.154 203.729 340.915 205.79 338.142 207.597C337.873 207.771 337.601 207.944 337.321 208.113C326.787 214.546 323.146 216.544 323.146 216.544C323.146 216.544 318.359 218.351 315.869 221.006C313.378 223.661 308.144 227.466 310.954 232.42H399.439L398.332 229.81C398.332 229.81 398.757 228.107 396.771 227.401C396.064 225.637 397.85 224.834 395.523 224.031C393.196 223.228 395.323 223.107 394.869 221.817C394.416 220.526 395.835 220.369 394.016 219.177C392.198 217.985 394.528 218.215 393.309 216.939C392.089 215.661 394.274 215.649 393.621 214.384C392.967 213.118 392.06 212.558 391.976 210.856C391.893 209.153 390.728 207.815 390.103 206.963C389.479 206.112 388.713 205.13 386.735 203.651C385.348 201.245 384.06 198.475 380.47 196.466C380.35 196.399 380.226 196.332 380.15 196.256C379.78 195.885 379.94 195.268 379.896 194.869C379.849 194.399 379.816 193.931 379.802 193.461C379.776 192.687 379.802 191.915 379.791 191.142C379.776 189.782 379.537 188.445 378.666 187.131C378.266 186.527 377.7 185.956 377.221 185.366C375.911 183.749 375.036 182.092 374.175 180.424C373.468 179.052 372.655 177.672 370.524 176.564C369.297 175.926 368.698 175.022 367.997 174.253C367.598 173.814 367.242 173.37 366.868 172.928C366.259 172.208 365.26 171.604 364.233 170.98C361.798 169.508 359.961 167.874 357.358 166.453C355.482 165.429 353.304 164.501 350.774 163.773C345.768 162.33 339.76 161.841 333.804 162.044C331.459 162.123 328.678 162.201 326.442 162.546C325.437 162.702 324.544 162.949 323.713 163.233C322.979 163.482 322.384 163.793 321.687 164.057C320.885 164.362 320.036 164.493 319.081 164.678C317.752 164.937 316.315 165.257 315.484 165.794C315.302 165.909 313.818 166.014 313.451 166.09C312.841 166.214 312.279 166.376 311.792 166.579C310.525 167.106 310.257 167.797 309.353 168.406C308.696 168.848 307.356 169.15 306.576 169.576C306.057 169.861 305.734 170.189 305.473 170.53C305.189 170.897 304.75 171.065 304.296 171.386C303.908 171.662 303.578 171.954 303.291 172.251C302.63 172.941 302.206 173.672 302.002 174.412C301.788 175.205 301.839 176.018 302.249 176.799C302.598 177.465 303.447 178.036 303.944 178.673L303.952 178.671Z" fill="#ED1C29"/>
</g>
<g style="mix-blend-mode:multiply">
<path d="M107.992 242.287C107.992 242.287 98.0353 232.916 109.698 221.941C107.727 219.86 109.317 218.228 111.041 217.033C111.901 215.674 119.916 212.966 122.686 212.804C119.187 211.976 112.29 213.747 106.562 208.115C102.732 204.268 106.319 203.023 106.319 203.023C106.319 203.023 102.968 202.786 101.262 200.056C92.7865 200.83 88.6593 199.395 85.4868 195.982C84.7862 195.045 83.2907 193.531 87.9297 193.285C88.1729 192.877 88.2636 192.44 88.6665 192.054C88.7609 191.964 88.888 191.872 89.0985 191.834C89.309 191.797 89.545 191.822 89.7628 191.848C89.7482 191.847 89.7083 191.321 89.6974 191.271C89.6575 191.084 89.6067 190.897 89.5849 190.711C89.5522 190.42 89.5668 190.066 90.1112 189.856C90.6557 189.646 91.5487 189.646 92.2492 189.677C92.1222 188.186 93.1277 187.178 96.2675 187.494C99.284 187.046 100.446 186.336 102.253 187.408C105.462 187.536 105.818 187.824 106.925 188.737C108.518 188.109 109.843 187.888 110.577 188.099C110.845 187.433 111.426 187.312 112.352 187.338C112.925 186.507 115.47 185.734 118.482 185.821C119.597 184.123 121.023 183.282 122.682 182.985C124.345 182.688 125.553 181.667 126.57 181.628C127.586 181.589 131.347 181.006 133.496 181.449C135.645 181.893 136.483 178.456 142.378 180.428C148.273 182.398 147.104 178.559 153.496 180.492C159.889 182.425 159.656 181.346 162.753 182.162C165.852 182.979 169.715 183.801 171.769 185.105C173.824 186.411 170.433 186.916 170.433 186.916C170.55 186.899 171.05 187.136 171.116 187.164C171.762 187.436 172.31 187.752 172.796 188.079C173.657 188.656 174.332 189.28 174.898 189.919C175.766 190.896 176.379 191.914 176.84 192.941C176.956 193.196 177.062 193.453 177.16 193.71C177.254 193.956 177.406 194.211 177.454 194.465C177.504 194.74 177.359 194.991 177.221 195.258C177.091 195.51 176.288 196.183 179.363 197.224C182.437 198.265 184.797 199.912 185.603 200.808C186.409 201.704 184.583 202.283 181.57 202.707C181.57 202.707 180.394 202.932 181.882 203.732C183.37 204.532 180.227 205.34 180.227 205.34C180.227 205.34 181.966 206.583 180.263 207.282C179.762 207.488 179.327 207.779 179.559 208.087C179.719 208.3 180.093 208.465 180.281 208.67C180.546 208.96 180.59 209.279 180.554 209.587C180.492 210.127 180.103 210.677 179.377 211.122C178.877 211.43 178.212 211.683 177.468 211.878C176.945 212.015 176.376 212.147 175.78 212.23C175.138 212.317 174.499 212.314 173.831 212.318C173.203 212.323 172.575 212.329 171.947 212.345C170.241 212.384 168.535 212.462 166.862 212.608C165.195 212.754 163.475 212.963 162.037 213.367C160.869 213.696 159.968 214.184 159.91 214.802C159.91 214.802 156.803 217.618 156.516 218.66C156.516 218.66 157.478 219.284 158.996 219.641C160.513 219.997 164.691 224.192 164.691 224.192C164.691 224.192 167.878 226.036 165.707 226.193C163.537 226.35 169.047 226.692 169.047 226.692C169.047 226.692 172.695 227.357 173.751 228.697C173.751 228.697 175.748 228.898 176.818 229.396C178.691 229.606 179.189 229.724 180.187 230.284C182.223 230.409 182.931 230.533 184.031 231.24C185.606 231.61 186.34 231.761 186.753 232.007L107.996 242.288L107.992 242.287Z" fill="#C4161C"/>
</g>
<g style="mix-blend-mode:multiply">
<path d="M424.784 246C424.784 246 412.95 236.605 423.219 224.9C420.841 222.806 422.217 221.07 423.803 219.781C424.471 218.349 432.319 215.307 435.158 215.056C431.401 214.304 424.555 216.345 417.709 210.689C413.117 206.823 416.624 205.427 416.624 205.427C416.624 205.427 413.117 205.284 410.906 202.511C402.267 203.566 397.759 202.207 393.919 198.771C393.044 197.823 391.247 196.301 396.006 195.907C396.191 195.478 396.213 195.023 396.568 194.611C396.652 194.516 396.768 194.416 396.982 194.37C397.193 194.324 397.443 194.343 397.672 194.363C397.654 194.363 397.527 193.819 397.509 193.767C397.436 193.576 397.352 193.384 397.302 193.191C397.222 192.891 397.178 192.525 397.705 192.29C398.249 192.049 399.16 192.03 399.89 192.04C399.516 190.501 400.391 189.427 403.687 189.66C406.732 189.106 407.817 188.336 409.865 189.393C413.204 189.428 413.622 189.715 414.914 190.627C416.457 189.929 417.792 189.66 418.587 189.858C418.754 189.161 419.339 189.017 420.297 189.017C420.754 188.141 423.259 187.264 426.392 187.264C427.266 185.474 428.602 184.562 430.272 184.204C431.942 183.846 433.027 182.755 434.069 182.683C435.111 182.612 438.911 181.896 441.205 182.29C443.499 182.683 443.808 179.104 450.229 180.965C456.65 182.826 454.814 178.889 461.743 180.697C468.672 182.504 468.255 181.395 471.595 182.146C474.934 182.898 479.065 183.631 481.403 184.92C483.74 186.208 480.317 186.834 480.317 186.834C480.433 186.812 480.992 187.043 481.065 187.069C481.78 187.33 482.397 187.642 482.956 187.965C483.94 188.537 484.742 189.162 485.432 189.807C486.488 190.792 487.29 191.827 487.936 192.874C488.096 193.135 488.248 193.397 488.394 193.66C488.532 193.912 488.731 194.17 488.822 194.432C488.92 194.715 488.811 194.98 488.709 195.26C488.615 195.524 487.896 196.243 491.247 197.229C494.597 198.212 497.309 199.846 498.292 200.75C499.272 201.655 497.479 202.307 494.43 202.836C494.43 202.836 493.25 203.104 494.92 203.888C496.59 204.671 493.468 205.601 493.468 205.601C493.468 205.601 495.472 206.836 493.824 207.611C493.338 207.838 492.938 208.154 493.225 208.463C493.425 208.678 493.839 208.839 494.067 209.046C494.39 209.337 494.485 209.667 494.499 209.986C494.525 210.546 494.212 211.126 493.534 211.609C493.065 211.942 492.419 212.225 491.682 212.449C491.163 212.606 490.597 212.762 489.994 212.863C489.345 212.974 488.68 212.989 487.991 213.014C487.341 213.037 486.695 213.064 486.045 213.098C484.288 213.19 482.535 213.322 480.825 213.523C479.123 213.724 477.381 213.991 475.961 214.454C474.807 214.829 473.954 215.361 473.998 216.002C473.998 216.002 471.242 219.009 471.119 220.095C471.119 220.095 472.215 220.713 473.841 221.035C475.468 221.357 480.477 225.572 480.477 225.572C480.477 225.572 484.078 227.383 481.853 227.612C479.628 227.841 485.392 228.028 485.392 228.028C485.392 228.028 489.272 228.605 490.59 229.961C490.59 229.961 492.688 230.109 493.878 230.591C495.849 230.751 496.383 230.859 497.508 231.41C499.635 231.477 500.387 231.584 501.639 232.283C503.331 232.619 504.111 232.753 504.583 232.994L424.784 246Z" fill="#ED1C29"/>
</g>
<path d="M99.3748 180.861H121.031C133.655 180.861 139.423 184.573 139.423 190.65V193.017C139.423 199.686 134.2 203.236 120.704 203.236H116.678V216.682H99.3748V180.861ZM116.678 196.351H118.094C120.925 196.351 121.902 195.652 121.902 193.5V189.628C121.902 187.691 120.377 187.207 117.985 187.207H116.678V196.351Z" fill="white"/>
<path d="M152.375 216.681V207.106C152.375 206.353 152.048 205.008 151.721 204.202L140.512 180.859H158.905C159.449 185.162 160.321 190.272 160.865 195.596H161.954C162.498 191.616 163.696 185.538 164.459 180.859H181.544L170.118 204.848C169.791 205.601 169.573 205.924 169.573 206.569V216.681H152.378H152.375Z" fill="white"/>
<path d="M184.372 180.861H201.676V209.421H217.891L216.148 216.682H184.369V180.861H184.372Z" fill="white"/>
<path d="M238.788 209.151L237.917 216.681H220.286L228.014 180.859H255.547L263.166 216.681H245.318L244.447 209.151H238.788ZM243.685 202.052C243.358 199.308 242.051 189.95 241.724 188.014H240.962C240.853 189.573 239.764 198.556 239.438 202.052H243.681H243.685Z" fill="white"/>
<path d="M268.172 180.861H287.109C301.367 180.861 308.224 183.603 308.224 191.94V205.117C308.224 212.594 304.307 216.681 289.614 216.681H268.176V180.861H268.172ZM285.476 210.281H287C289.723 210.281 290.699 209.528 290.699 207.914V189.573C290.699 187.69 289.283 187.26 286.891 187.26H285.476V210.281Z" fill="white"/>
<path d="M332.054 180.861V216.682H314.859V180.861H332.054Z" fill="white"/>
<path d="M369.711 201.353H356.433V209.635H372.429L370.469 216.681H339.125V180.861H370.36V187.906H356.429V194.306H369.707V201.351L369.711 201.353Z" fill="white"/>
<path d="M392.456 204.957V207.861C392.456 210.012 393.218 210.55 394.851 210.55C396.376 210.55 396.92 209.797 396.92 208.453C396.92 205.763 396.267 204.957 389.628 201.891C380.811 197.803 376.677 195.706 376.677 190.488C376.677 184.733 381.029 180.322 395.069 180.322C410.522 180.322 413.244 185.002 413.244 189.842V192.048H398.009V189.305C398.009 187.477 397.356 186.993 395.723 186.993C394.416 186.993 393.654 187.531 393.654 189.144C393.654 191.027 394.307 191.778 399.748 194.2C409.65 198.556 414.333 200.816 414.333 206.517C414.333 213.078 410.307 217.219 394.96 217.219C381.247 217.219 376.023 213.507 376.023 207.108V204.957H392.456Z" fill="white"/>
<path d="M449.372 204.957V207.861C449.372 210.012 450.134 210.55 451.768 210.55C453.292 210.55 453.837 209.797 453.837 208.453C453.837 205.763 453.184 204.957 446.545 201.891C437.728 197.803 433.593 195.706 433.593 190.488C433.593 184.733 437.945 180.322 451.986 180.322C467.438 180.322 470.161 185.002 470.161 189.842V192.048H454.926V189.305C454.926 187.477 454.273 186.993 452.639 186.993C451.332 186.993 450.57 187.531 450.57 189.144C450.57 191.027 451.223 191.778 456.665 194.2C466.567 198.556 471.25 200.816 471.25 206.517C471.25 213.078 467.224 217.219 451.877 217.219C438.163 217.219 432.94 213.507 432.94 207.108V204.957H449.372Z" fill="white"/>
<path d="M476.582 180.861H498.238C510.863 180.861 516.631 184.573 516.631 190.65V193.017C516.631 199.686 511.407 203.236 497.911 203.236H493.886V216.682H476.582V180.861ZM493.886 196.351H495.301C498.133 196.351 499.109 195.652 499.109 193.5V189.628C499.109 187.691 497.585 187.207 495.192 187.207H493.886V196.351Z" fill="white"/>
<path d="M379.5 231.154V220.153C378.912 220.201 377.635 220.207 376.887 220.182V218.623C378.56 218.551 379.831 218.164 380.542 217.717H383.675V231.154H379.5Z" fill="white"/>
<path d="M407.886 221.101V227.628C407.886 229.589 406.656 231.313 401.367 231.313C396.481 231.313 395.178 229.612 395.178 227.65V221.119C395.178 219.099 397.178 217.619 401.599 217.619C406.02 217.619 407.886 219.291 407.886 221.099V221.101ZM399.392 220.962V227.961C399.392 228.832 399.991 229.45 401.519 229.45C403.048 229.45 403.639 228.867 403.639 227.903V220.929C403.639 220.002 403.051 219.468 401.516 219.468C399.98 219.468 399.392 220.061 399.392 220.962Z" fill="white"/>
<path d="M421.335 226.409L419.803 231.154H417.803L422.308 217.781H425.172L429.872 231.154H427.785L426.166 226.409H421.335ZM425.879 225.508C424.707 222.098 423.97 219.74 423.749 218.646H423.654C423.567 219.633 422.493 222.741 421.633 225.508H425.883H425.879Z" fill="white"/>
<path d="M440.519 231.154V217.781H442.991C444.711 220.662 448.842 227.956 449.394 229.312H449.47C449.336 227.408 449.267 225.525 449.267 223.357V217.781H451.194V231.154H448.791C446.947 228.015 442.878 220.637 442.199 219.225H442.16C442.326 220.83 442.457 223.191 442.457 225.609V231.154H440.522H440.519Z" fill="white"/>
<path d="M473.602 220.884V227.966C473.602 230.168 471.809 231.322 468.157 231.322C464.11 231.322 462.886 229.95 462.886 227.973V220.9C462.886 218.828 464.621 217.618 468.302 217.618C472.23 217.618 473.598 219.091 473.598 220.886L473.602 220.884ZM464.923 220.912V228C464.923 229.774 466.229 230.426 468.258 230.426C470.288 230.426 471.569 229.78 471.569 227.913V220.926C471.569 219.26 470.357 218.514 468.226 218.514C465.964 218.514 464.923 219.233 464.923 220.912Z" fill="white"/>
<path d="M486.139 227.506V228.246C486.139 229.687 487.21 230.443 489.319 230.443C491.428 230.443 492.474 229.797 492.474 227.92C492.474 226.268 491.729 225.547 488.916 224.473C486.034 223.365 484.626 222.725 484.626 220.761C484.626 219.115 485.617 217.594 489.421 217.611C492.782 217.629 494.049 218.653 494.049 220.522V221.077H492.071V220.548C492.071 219.314 491.548 218.491 489.374 218.491C487.199 218.491 486.611 219.448 486.611 220.609C486.611 222.058 487.207 222.536 489.762 223.51C493.316 224.861 494.47 225.589 494.47 227.797C494.47 229.665 493.562 231.319 489.33 231.319C485.402 231.319 484.154 230.017 484.154 228.255V227.505H486.139V227.506Z" fill="white"/>
</g>
<defs>
<clipPath id="clip0_40_148">
<rect width="475" height="84" fill="white" transform="translate(73 162)"/>
</clipPath>
</defs>
</svg>
